<svg width="46" height="47" viewBox="0 0 46 47" fill="none" xmlns="http://www.w3.org/2000/svg">
<g filter="url(#filter0_d_128_175)">
<path fill-rule="evenodd" clip-rule="evenodd" d="M13.4167 7.8584C11.9426 7.8584 10.5288 8.44401 9.4864 9.4864C8.44401 10.5288 7.8584 11.9426 7.8584 13.4167V17.2501C7.8584 17.7076 8.04014 18.1463 8.36364 18.4698C8.68714 18.7933 9.1259 18.9751 9.5834 18.9751C10.0409 18.9751 10.4797 18.7933 10.8032 18.4698C11.1267 18.1463 11.3084 17.7076 11.3084 17.2501V13.4167C11.3084 12.8576 11.5305 12.3213 11.9259 11.9259C12.3213 11.5305 12.8576 11.3084 13.4167 11.3084H17.2501C17.7076 11.3084 18.1463 11.1267 18.4698 10.8032C18.7933 10.4797 18.9751 10.0409 18.9751 9.5834C18.9751 9.1259 18.7933 8.68714 18.4698 8.36364C18.1463 8.04014 17.7076 7.8584 17.2501 7.8584H13.4167ZM13.4167 38.1417C11.9426 38.1417 10.5288 37.5561 9.4864 36.5137C8.44401 35.4713 7.8584 34.0576 7.8584 32.5834V28.7501C7.8584 28.2926 8.04014 27.8538 8.36364 27.5303C8.68714 27.2068 9.1259 27.0251 9.5834 27.0251C10.0409 27.0251 10.4797 27.2068 10.8032 27.5303C11.1267 27.8538 11.3084 28.2926 11.3084 28.7501V32.5834C11.3084 32.8603 11.3629 33.1344 11.4689 33.3902C11.5748 33.646 11.7301 33.8784 11.9259 34.0742C12.1217 34.27 12.3541 34.4253 12.6099 34.5312C12.8657 34.6372 13.1399 34.6917 13.4167 34.6917H17.2501C17.7076 34.6917 18.1463 34.8735 18.4698 35.197C18.7933 35.5205 18.9751 35.9592 18.9751 36.4167C18.9751 36.8742 18.7933 37.313 18.4698 37.6365C18.1463 37.96 17.7076 38.1417 17.2501 38.1417H13.4167ZM38.1417 13.4167C38.1417 11.9426 37.5561 10.5288 36.5137 9.4864C35.4713 8.44401 34.0576 7.8584 32.5834 7.8584H28.7501C28.2926 7.8584 27.8538 8.04014 27.5303 8.36364C27.2068 8.68714 27.0251 9.1259 27.0251 9.5834C27.0251 10.0409 27.2068 10.4797 27.5303 10.8032C27.8538 11.1267 28.2926 11.3084 28.7501 11.3084H32.5834C32.8603 11.3084 33.1344 11.3629 33.3902 11.4689C33.646 11.5748 33.8784 11.7301 34.0742 11.9259C34.27 12.1217 34.4253 12.3541 34.5312 12.6099C34.6372 12.8657 34.6917 13.1399 34.6917 13.4167V17.2501C34.6917 17.7076 34.8735 18.1463 35.197 18.4698C35.5205 18.7933 35.9592 18.9751 36.4167 18.9751C36.8742 18.9751 37.313 18.7933 37.6365 18.4698C37.96 18.1463 38.1417 17.7076 38.1417 17.2501V13.4167ZM32.5834 38.1417C34.0576 38.1417 35.4713 37.5561 36.5137 36.5137C37.5561 35.4713 38.1417 34.0576 38.1417 32.5834V28.7501C38.1417 28.2926 37.96 27.8538 37.6365 27.5303C37.313 27.2068 36.8742 27.0251 36.4167 27.0251C35.9592 27.0251 35.5205 27.2068 35.197 27.5303C34.8735 27.8538 34.6917 28.2926 34.6917 28.7501V32.5834C34.6917 32.8603 34.6372 33.1344 34.5312 33.3902C34.4253 33.646 34.27 33.8784 34.0742 34.0742C33.8784 34.27 33.646 34.4253 33.3902 34.5312C33.1344 34.6372 32.8603 34.6917 32.5834 34.6917H28.7501C28.2926 34.6917 27.8538 34.8735 27.5303 35.197C27.2068 35.5205 27.0251 35.9592 27.0251 36.4167C27.0251 36.8742 27.2068 37.313 27.5303 37.6365C27.8538 37.96 28.2926 38.1417 28.7501 38.1417H32.5834Z" fill="#F5FAFF"/>
</g>
<defs>
<filter id="filter0_d_128_175" x="-4" y="0" width="54" height="54" filterUnits="userSpaceOnUse" color-interpolation-filters="sRGB">
<feFlood flood-opacity="0" result="BackgroundImageFix"/>
<feColorMatrix in="SourceAlpha" type="matrix" values="0 0 0 0 0 0 0 0 0 0 0 0 0 0 0 0 0 0 127 0" result="hardAlpha"/>
<feOffset dy="4"/>
<feGaussianBlur stdDeviation="2"/>
<feComposite in2="hardAlpha" operator="out"/>
<feColorMatrix type="matrix" values="0 0 0 0 0 0 0 0 0 0 0 0 0 0 0 0 0 0 0.25 0"/>
<feBlend mode="normal" in2="BackgroundImageFix" result="effect1_dropShadow_128_175"/>
<feBlend mode="normal" in="SourceGraphic" in2="effect1_dropShadow_128_175" result="shape"/>
</filter>
</defs>
</svg>
