<?xml version="1.0" encoding="UTF-8"?>
<svg xmlns="http://www.w3.org/2000/svg" viewBox="0 0 64 64" width="512" height="512"><g id="Layer_9" data-name="Layer 9"><path d="M32,6l1.036-1.38A6.552,6.552,0,0,1,38.276,2h0a6.553,6.553,0,0,1,6.217,4.481L47,14h0a4.387,4.387,0,0,1,4.162-3h.127a4.388,4.388,0,0,1,3.924,2.425h0A7.458,7.458,0,0,1,56,16.761V38A24,24,0,0,1,32,62h0A24,24,0,0,1,8,38V16.761a7.459,7.459,0,0,1,.788-3.336h0A4.387,4.387,0,0,1,12.711,11h.126A4.387,4.387,0,0,1,17,14h0l2.507-7.519A6.553,6.553,0,0,1,25.722,2h0a6.556,6.556,0,0,1,5.242,2.62Z" style="fill:#447b3b"/><path d="M55.212,13.425A4.388,4.388,0,0,0,51.288,11h-.127A4.387,4.387,0,0,0,47,14L44.493,6.481A6.553,6.553,0,0,0,33.035,4.62L32,6,30.964,4.62A6.561,6.561,0,0,0,19.506,6.481L17,14a4.387,4.387,0,0,0-4.162-3h-.126a4.277,4.277,0,0,0-.508.036,7.451,7.451,0,0,0-.2,1.725V34A24,24,0,0,0,36,58h0a23.889,23.889,0,0,0,14.846-5.15A23.889,23.889,0,0,0,56,38V16.761A7.458,7.458,0,0,0,55.212,13.425Z" style="fill:#508c45"/><path d="M12,23h1a4,4,0,0,0,4-4V14a4.387,4.387,0,0,0-4.162-3h-.126a4.387,4.387,0,0,0-3.924,2.425A7.459,7.459,0,0,0,8,16.761V19A4,4,0,0,0,12,23Z" style="fill:#396031"/><path d="M19.908,9.91A7.136,7.136,0,0,0,31.993,6.037L32,6,30.964,4.62A6.553,6.553,0,0,0,19.506,6.481L18.749,8.75h0Z" style="fill:#396031"/><path d="M39.044,12A7.136,7.136,0,0,0,44.09,9.91l1.159-1.16h0l-.756-2.269A6.553,6.553,0,0,0,33.035,4.62L32,6l.006.037A7.137,7.137,0,0,0,39.044,12Z" style="fill:#396031"/><path d="M55.212,13.425A4.388,4.388,0,0,0,51.288,11h-.127A4.387,4.387,0,0,0,47,14v5a4,4,0,0,0,4,4h1a4,4,0,0,0,4-4V16.761A7.458,7.458,0,0,0,55.212,13.425Z" style="fill:#396031"/><path d="M51.289,10h-.127a5.382,5.382,0,0,0-3.889,1.657L45.442,6.164A7.552,7.552,0,0,0,32.236,4.02L32,4.334l-.236-.314A7.552,7.552,0,0,0,18.558,6.164l-1.831,5.493A5.382,5.382,0,0,0,12.838,10h-.127a5.358,5.358,0,0,0-4.818,2.978A8.5,8.5,0,0,0,7,16.761V38a25,25,0,0,0,50,0V16.761a8.5,8.5,0,0,0-.893-3.783A5.358,5.358,0,0,0,51.289,10ZM38.277,3a5.546,5.546,0,0,1,5.268,3.8l.561,1.684-.722.722a6.115,6.115,0,0,1-10.3-2.984l.749-1A5.581,5.581,0,0,1,38.277,3ZM20.455,6.8a5.553,5.553,0,0,1,9.71-1.577l.752,1A6.118,6.118,0,0,1,20.616,9.2l-.722-.722ZM9,16.761a6.489,6.489,0,0,1,.682-2.888A3.368,3.368,0,0,1,12.711,12h.127A3.377,3.377,0,0,1,16,14.2V19a3,3,0,0,1-3,3H12a3,3,0,0,1-3-3ZM32,61A23.025,23.025,0,0,1,9,38V22.974A4.948,4.948,0,0,0,12,24h1a5.006,5.006,0,0,0,5-5V14.163L19.187,10.6l.015.015A8.137,8.137,0,0,0,32,8.94a8.143,8.143,0,0,0,12.8,1.677l.015-.015L46,14.163V19a5.006,5.006,0,0,0,5,5h1a4.948,4.948,0,0,0,3-1.026V38A23.026,23.026,0,0,1,32,61ZM52,22H51a3,3,0,0,1-3-3V14.2A3.377,3.377,0,0,1,51.162,12h.127a3.368,3.368,0,0,1,3.029,1.873A6.489,6.489,0,0,1,55,16.761V19A3,3,0,0,1,52,22Z"/></g></svg>
