<?xml version="1.0" encoding="UTF-8"?>
<svg xmlns="http://www.w3.org/2000/svg" xmlns:xlink="http://www.w3.org/1999/xlink" version="1.1" id="Capa_1" x="0px" y="0px" viewBox="0 0 511.872 511.872" style="enable-background:new 0 0 511.872 511.872;" xml:space="preserve" width="512" height="512">
<g>
	<g>
		<path style="fill:#F3F5FC;" d="M358.42,256.407c17.63,42.32,30.04,102.22,23.31,155.7c-1.09,8.65-5.23,16.25-11.29,21.73&#10;&#9;&#9;&#9;c-148.027-69.142-145.017-309.807-60.09-364.83c49.44,1.82,88.75,41.57,89.53,91.54c0.48,30.37-13.6,57.46-35.71,74.79&#10;&#9;&#9;&#9;C357.78,240.347,355.3,248.907,358.42,256.407z"/>
		<path style="fill:#D7DDF5;" d="M370.44,433.837c-6.24,5.68-14.51,9.1-23.52,9.1H218.41c-5.23-13.63-21.08-25.99-33.71-32.33&#10;&#9;&#9;&#9;c-42.96-21.57-60.25-62.64-35.28-95.01c15.68-3.83,31.23-6.22,46.42-7.26c17.7-1.23,31.22-16.19,31.06-33.93&#10;&#9;&#9;&#9;c-0.34-38.01-13.22-79.77-13.22-112.37c0-51.25,41.42-92.83,92.61-93.1c1.36-0.01,2.71,0.01,4.06,0.07&#10;&#9;&#9;&#9;C241.3,171.727,250.71,336.767,370.44,433.837z"/>
		<path style="fill:#525E77;" d="M218.41,442.937H35.22c-22.99,0-35.99-26.47-21.84-44.59c27.87-35.71,73.05-65.62,128.12-80.71&#10;&#9;&#9;&#9;c2.64-0.73,5.28-1.41,7.92-2.05c-10.67,34.52,11.16,72.5,54.12,94.07C216.17,415.997,222.08,430.207,218.41,442.937z"/>
		<path style="fill:#F9EE80;" d="M495.23,200.377c-3.29,2.1-7.05,3.16-10.83,3.16c-3.14,0-6.29-0.73-9.18-2.23&#10;&#9;&#9;&#9;c-9.61-4.97-21.51-8.59-38.02-9.14c-28.508-15.423-24.161-53.213-4.34-61.84c30.09,7.25,54.55,22.39,68.01,41.61&#10;&#9;&#9;&#9;C507.42,181.287,504.85,194.227,495.23,200.377z"/>
		<path style="fill:#F9D171;" d="M437.2,192.167c-11.93-0.4-26.26,0.8-43.87,4.25c0,0-4.862-18.427-25.477-28.768&#10;&#9;&#9;&#9;c-4.434-2.224-4.345-8.549,0.074-10.802c20.313-10.354,24.683-31.2,24.683-31.2c14.14,0,27.68,1.65,40.25,4.68&#10;&#9;&#9;&#9;C424.03,148.697,424.61,172.877,437.2,192.167z"/>
		<ellipse style="fill:#FFA1AC;" cx="288.001" cy="158.533" rx="29.355" ry="23.377"/>
	</g>
	<g>
		<path style="fill:none;stroke:#000000;stroke-width:15;stroke-linecap:round;stroke-linejoin:round;stroke-miterlimit:10;" d="&#10;&#9;&#9;&#9;M149.422,315.601c-10.676,34.504,11.163,72.484,54.119,94.054c12.633,6.343,18.538,20.551,14.875,33.286"/>
		<path style="fill:none;stroke:#000000;stroke-width:15;stroke-linecap:round;stroke-linejoin:round;stroke-miterlimit:10;" d="&#10;&#9;&#9;&#9;M392.625,125.65c47.638,0,88.592,18.775,107.842,45.716c6.118,8.563,4.997,20.551-3.023,27.366&#10;&#9;&#9;&#9;c-6.288,5.343-15.061,6.279-22.226,2.573c-16.562-8.568-39.927-13.104-81.896-4.884c0,0-4.858-18.429-25.473-28.771&#10;&#9;&#9;&#9;c-4.434-2.225-4.345-8.55,0.075-10.802C388.245,146.493,392.625,125.65,392.625,125.65z"/>
		<path style="fill:none;stroke:#000000;stroke-width:15;stroke-linecap:round;stroke-linejoin:round;stroke-miterlimit:10;" d="&#10;&#9;&#9;&#9;M364.583,162.102c75.897,0.75,110.124,8.28,110.635,39.202"/>
		
			<line style="fill:none;stroke:#000000;stroke-width:15;stroke-linecap:round;stroke-linejoin:round;stroke-miterlimit:10;" x1="305.11" y1="124.028" x2="305.11" y2="136.028"/>
		<path style="fill:none;stroke:#000000;stroke-width:15;stroke-linecap:round;stroke-linejoin:round;stroke-miterlimit:10;" d="&#10;&#9;&#9;&#9;M102.542,442.94h244.379c17.73,0,32.598-13.245,34.811-30.837c6.729-53.482-5.687-113.376-23.312-155.696&#10;&#9;&#9;&#9;c-3.123-7.498-0.639-16.066,5.754-21.076c12.868-10.085,23.009-23.485,29.149-38.91"/>
		<path style="fill:none;stroke:#000000;stroke-width:15;stroke-linecap:round;stroke-linejoin:round;stroke-miterlimit:10;" d="&#10;&#9;&#9;&#9;M224.319,118.798c-6.789,12.921-10.636,27.63-10.636,43.239c0,32.595,12.876,74.357,13.221,112.368&#10;&#9;&#9;&#9;c0.161,17.742-13.362,32.706-31.063,33.927c-17.737,1.225-35.985,4.276-54.339,9.307C86.433,332.73,41.248,362.636,13.377,398.347&#10;&#9;&#9;&#9;C-0.768,416.47,12.23,442.94,35.22,442.94h32.322"/>
		<path style="fill:none;stroke:#000000;stroke-width:15;stroke-linecap:round;stroke-linejoin:round;stroke-miterlimit:10;" d="&#10;&#9;&#9;&#9;M392.619,125.678c-14.139-33.662-47.389-56.951-86.332-56.746c-22.982,0.121-43.989,8.573-60.167,22.484"/>
	</g>
</g>















</svg>
