<svg id="Capa_1" enable-background="new 0 0 512 512" height="512" viewBox="0 0 512 512" width="512" xmlns="http://www.w3.org/2000/svg"><g><path d="m305.842 0c-102.019 0-185.973 157.633-196.428 274.607-.182 2.038.555 4.049 1.987 5.51l32.941 33.612c3.051 3.113 3.358 7.992.722 11.464l-14.066 18.521c-1.377 1.813-3.731 2.585-5.914 1.94l-11.935-3.528c-.323-.095-.635.189-.57.519 18.876 96.743 98.232 169.355 193.263 169.355 109.09 0 197.524-95.687 197.524-213.723s-88.435-298.277-197.524-298.277z" fill="#f1f1f4"/><path d="m334.556 4.149c74.579 53.432 127.603 182.127 127.603 273.525 0 118.036-88.435 213.723-197.524 213.723-21.517 0-42.231-3.723-61.621-10.606 29.952 19.799 65.158 31.209 102.828 31.209 109.09 0 197.524-95.687 197.524-213.723 0-107.483-73.33-266.547-168.81-294.128z" fill="#dfdde2"/><g fill="#ffe07d"><path d="m56.338 327.161h-34.323c-7.39 0-13.38-5.991-13.38-13.38 0-7.39 5.991-13.38 13.38-13.38h34.323c7.39 0 13.38 5.991 13.38 13.38 0 7.39-5.991 13.38-13.38 13.38z"/><path d="m75.733 380.547-29.725 17.162c-6.4 3.695-14.583 1.502-18.278-4.897-3.695-6.4-1.502-14.583 4.898-18.278l29.725-17.162c6.4-3.695 14.583-1.502 18.278 4.897 3.694 6.4 1.501 14.583-4.898 18.278z"/><path d="m75.733 247.015-29.725-17.162c-6.4-3.695-14.583-1.502-18.278 4.897-3.695 6.4-1.502 14.583 4.898 18.278l29.725 17.162c6.4 3.695 14.583 1.502 18.278-4.897 3.694-6.4 1.501-14.583-4.898-18.278z"/></g><path d="m452.54 310.613c-1.726-3.903-6.288-5.669-10.191-3.942l-28.432 12.571-46.591-7.716c-2.251-.373-4.547.268-6.281 1.747l-26.875 22.954-45.562-45.234c-2.257-2.241-5.656-2.871-8.566-1.585l-14.928 6.596-18.422-22.648 8.693-15.178 44.785-16.055c2.144-.769 3.84-2.445 4.634-4.58.795-2.135.606-4.512-.515-6.495l-4.801-8.493 14.732-8.822 11.239 5.745c2.451 1.252 5.386 1.107 7.702-.385l29.452-18.979c3.588-2.311 4.621-7.093 2.31-10.68-2.313-3.588-7.096-4.62-10.68-2.309l-25.712 16.569-11.09-5.669c-2.371-1.212-5.201-1.118-7.487.251l-24.87 14.893c-3.596 2.153-4.819 6.782-2.757 10.431l3.997 7.071-33.073 11.857-20.328-31.369 15.3-14.56c1.533-1.459 2.4-3.481 2.4-5.597v-32.069c0-4.267-3.459-7.726-7.726-7.726s-7.726 3.459-7.726 7.726v28.756l-17.543 16.696c-2.693 2.563-3.179 6.68-1.158 9.799l24.58 37.932-10.402 18.164c-1.589 2.773-1.306 6.237.71 8.715l19.103 23.486-15.674 6.926-21.603-18.763c-2.163-1.878-5.187-2.406-7.86-1.37l-61.557 23.871.573.585c3.051 3.113 3.358 7.992.722 11.464l-4.331 5.703 65.838-25.531 21.789 18.925c2.261 1.964 5.454 2.444 8.189 1.233l44.915-19.847 26.277 26.088-25.778 44.996c-1.514 2.643-1.334 5.929.46 8.39l20.654 28.349-4.326 26.483c-.519 3.179.989 6.347 3.784 7.949l27.401 15.707c1.211.695 2.532 1.025 3.835 1.025 2.678 0 5.283-1.395 6.71-3.885 2.122-3.702.841-8.424-2.861-10.546l-22.755-13.044 3.983-24.384c.333-2.039-.165-4.126-1.381-5.795l-19.607-26.912 21.233-37.063 9.241 9.175c1.501 1.49 3.47 2.243 5.445 2.243 1.782 0 3.567-.613 5.017-1.851l29.553-25.241 45.32 7.506c1.487.247 3.01.053 4.387-.556l30.542-13.504c3.905-1.729 5.67-6.291 3.944-10.194z" fill="#dfdde2"/></g></svg>