<svg enable-background="new 0 0 50 50" height="50" viewBox="0 0 50 50" width="50" xmlns="http://www.w3.org/2000/svg"><g id="Layer_21"/><g id="Layer_20"/><g id="Layer_19"/><g id="Layer_18"/><g id="Layer_17"/><g id="Layer_16"/><g id="Layer_15"/><g id="Layer_14"/><g id="Layer_13"/><g id="Layer_12"/><g id="Layer_11"/><g id="Layer_10"/><g id="Layer_9"><g><g clip-rule="evenodd" fill-rule="evenodd"><path d="m39.713 32.693-2.983 6.663 9.033 3.857c.663-3.999-2.374-8.373-6.05-10.52m.143-8.725 6.935.961c-.352-5.032-6.167-8.648-10.075-8.255zm-29.568 8.725c-3.676 2.147-6.713 6.52-6.051 10.52l9.033-3.857zm-.143-8.725 3.14-7.294c-3.908-.393-9.722 3.222-10.075 8.255zm9.914-13.662h9.931l.278-3.22c.282-3.259-2.207-6.264-5.244-6.264s-5.528 3.005-5.245 6.264z" fill="#d9cca1"/><path d="m25.024 49.114s12.17-7.088 14.722-16.401c.299-1.09.466-2.211.466-3.355 0-10.911-6.799-19.759-15.187-19.759s-15.188 8.848-15.188 19.759 15.187 19.756 15.187 19.756" fill="#a6b575"/><path d="m24.828 7.319c.752 0 1.36-.927 1.36-2.072s-.608-2.072-1.36-2.072-1.36.927-1.36 2.072.608 2.072 1.36 2.072m.578 2.637c.585 0 1.059-.476 1.059-1.06s-.474-1.06-1.059-1.06c-.587 0-1.06.476-1.06 1.06s.473 1.06 1.06 1.06zm2.6-.38c-.587 0-1.06-.723-1.06-1.616 0-.891.474-1.615 1.06-1.615.587 0 1.06.724 1.06 1.615 0 .892-.474 1.616-1.06 1.616zm-.453-3.607c-.587 0-1.06-.724-1.06-1.615 0-.893.474-1.616 1.06-1.616.587 0 1.06.723 1.06 1.616 0 .891-.473 1.615-1.06 1.615zm-5.451 0c.587 0 1.06-.724 1.06-1.615 0-.893-.474-1.616-1.06-1.616s-1.06.723-1.06 1.616c0 .891.474 1.615 1.06 1.615zm1.488-3.233c-.587 0-1.06-.475-1.06-1.06 0-.584.474-1.06 1.06-1.06.587 0 1.06.476 1.06 1.06.001.585-.473 1.06-1.06 1.06zm2.474.05c-.586 0-1.06-.475-1.06-1.06 0-.584.474-1.06 1.06-1.06.587 0 1.06.476 1.06 1.06 0 .585-.474 1.06-1.06 1.06zm-3.258 6.79c.587 0 1.06-.723 1.06-1.616 0-.891-.474-1.615-1.06-1.615-.584 0-1.06.724-1.06 1.615-.001.892.475 1.616 1.06 1.616zm22.338 33.374c-.421-3.356-3.021-6.661-6.062-8.442.238-.579.443-1.167.609-1.764l.022-.05c3.676 2.146 6.713 6.518 6.05 10.52zm-40.288 0c.421-3.356 3.021-6.661 6.062-8.442-.238-.579-.443-1.167-.608-1.764l-.022-.05c-3.676 2.146-6.713 6.518-6.05 10.52zm-1.084-18.1c1.546-3.152 5.175-5.327 8.186-5.57.338-.742.714-1.453 1.12-2.126l.206-.48c-3.908-.393-9.722 3.223-10.075 8.255zm42.456 0c-1.546-3.152-5.176-5.327-8.184-5.57-.339-.742-.714-1.453-1.123-2.126l-.206-.48c3.908-.393 9.722 3.223 10.075 8.255zm-13.883 16.135c-.278-.35-.868-.964-1.154-1.247-6.004-5.923-13.761 2.177-14.879 3.657l2.179-3.773 2.177-3.772c8.126-1.161 14.083-6.945 8.712-15.091l2.178 3.773 2.332 3.865c-1.501 4.553-2.314 8.861-1.545 12.588zm-16.033-12.684 4.356 7.548c-7.481-11.347 6.596-14.829 8.712-15.091l4.355-7.546c-6.084 12.15-16.138 1.701-17.424 0 2.862 4.954 1.617 9.82.001 15.089z" fill="#dec24f"/><path d="m12.121 28.249c.675-8.765 5.647-15.855 11.929-17.942 1.04-.347 2.116-.555 3.214-.611-.498-.064-1.004-.097-1.515-.097-1.399 0-2.755.246-4.041.708-3.17 1.135-5.927 3.575-7.904 6.846-.969 1.605-1.753 3.408-2.306 5.357-.607 2.133-.937 4.44-.937 6.846 0 1.157.169 2.287.474 3.388.433 1.562 1.134 3.064 2.005 4.476 4.305 6.999 12.709 11.895 12.709 11.895s-.142-.099-.396-.285l.064.047c1.682-1.044 8.365-5.427 12.15-11.387.951-1.501 1.721-3.104 2.178-4.777.301-1.09.467-2.211.467-3.355 0-2.292-.3-4.492-.852-6.54-.586-2.173-1.455-4.172-2.549-5.923-1.641-2.622-3.789-4.686-6.248-5.94 4.267 3.497 7.101 9.682 7.101 16.726 0 9.575-11.695 17.56-14.56 19.372-4.132-3.478-11.59-10.904-10.983-18.804" fill="#478f1c"/></g><path d="m29.178 9.413.209-2.405c.123-1.415-.363-2.83-1.328-3.884-1.674-1.826-4.391-1.83-6.068-.002-.967 1.054-1.453 2.471-1.33 3.886l.209 2.405c1.326-.456 2.718-.7 4.154-.7s2.828.244 4.154.7m8.573 29.416 7.218 3.084c-.076-3.001-2.245-6.008-4.728-7.818-.597 1.671-1.466 3.257-2.49 4.734zm2.603-15.686.01.001 5.36.743c-.856-3.28-4.367-5.855-7.496-6.292.912 1.684 1.634 3.551 2.126 5.548zm-30.556 10.926c-2.499 1.807-4.691 4.826-4.766 7.843l7.21-3.078.045-.019c-1.026-1.481-1.895-3.071-2.489-4.746zm-7.473-9.203c.367-5.222 6.111-9.276 10.612-9.103 1.68-2.461 3.808-4.406 6.217-5.624l-.257-2.977c-.165-1.909.488-3.817 1.787-5.236 2.358-2.57 6.326-2.566 8.68.002 1.302 1.419 1.951 3.328 1.786 5.234l-.258 2.976c2.41 1.218 4.537 3.164 6.217 5.624 4.438-.134 10.199 3.898 10.564 9.104.038.555-.451 1.022-1.005.939l-5.934-.822c.238 1.41.363 2.874.363 4.374 0 1.003-.12 1.987-.337 2.947 3.545 2.334 6.593 6.721 5.876 11.055-.093.568-.701.896-1.222.669l-8.752-3.737c-4.475 5.621-10.785 9.35-11.194 9.588-.136.08-.291.121-.444.121s-.308-.041-.445-.121c-.411-.238-6.731-3.973-11.207-9.603l-8.787 3.753c-.521.228-1.127-.104-1.222-.669-.72-4.352 2.354-8.758 5.917-11.083-.212-.952-.331-1.926-.331-2.92 0-1.502.126-2.968.365-4.381l-5.985.829c-.552.087-1.04-.389-1.004-.939zm9.499-7.277c-3.144.416-6.686 3.001-7.549 6.298l5.314-.736.107-.015c.492-1.997 1.215-3.863 2.128-5.547zm27.427 9.83c-.401-5.163-2.387-9.717-5.303-12.798l-3.546 6.137 3.845 6.661zm-5.745 13.763c3.102-3.267 5.82-7.394 5.82-11.825l-.002-.166h-5.077l-3.845 6.659zm-15.654 1.315c2.999 2.859 6.052 4.875 7.172 5.578 1.122-.704 4.184-2.729 7.188-5.596l-3.345-5.743-7.688-.002zm-7.129-13.307-.002.167c0 4.443 2.727 8.577 5.835 11.845l3.089-5.352-3.843-6.659-3.848-.002zm5.377-14.571c-2.916 3.081-4.903 7.634-5.304 12.799l1.158-.001 3.845.002 3.845-6.661zm8.924-4.134c-2.789 0-5.394 1.06-7.597 2.89l3.752 6.498h7.688l3.755-6.497c-2.203-1.831-4.809-2.891-7.598-2.891zm3.842 11.158h-7.686l-3.846 6.658 3.845 6.661 7.688.002 3.845-6.661z" fill="#3b3b38"/></g></g><g id="Layer_8"/><g id="Layer_7"/><g id="Layer_6"/><g id="Layer_5"/><g id="Layer_4"/><g id="Layer_3"/><g id="Layer_2"/></svg>