<svg id="Layer_1" enable-background="new 0 0 1024 1024" viewBox="0 0 1024 1024" xmlns="http://www.w3.org/2000/svg"><g id="XMLID_561_"><g id="XMLID_672_"><path id="XMLID_17_" d="m890.5 516.6c0 171-177.7 312.9-364.4 440.7 0 0-1.7.8-2.6 1.3 0 0 0 0-.1 0-3.5 1.5-7.4 2.3-11.5 2.3s-8-.8-11.5-2.3c0 0 0 0-.1 0-.9-.4-2.6-1.3-2.6-1.3-191.7-127.8-364.2-269.7-364.2-440.7 0-109 88.4-197.4 197.4-197.4 81 0 150.7 45 181.1 112.9 12.5-27.8 31.6-51.8 55.3-70.5 20.4 49.2 60.9 85.4 102.5 117.2 11.1 8.5 22.5 16.6 34.1 24.5 7.5 5.1 14.4 10.3 23.3 13 13.3 4 28.7 2.9 40.9-4.2 11.4-6.6 22.1-15.1 32.7-22.9 13-9.6 25.9-19.4 38.3-29.7 10.9-9 21.6-18.8 31.7-29.2 12.6 26.1 19.7 55.4 19.7 86.3z" fill="#ff2444"/></g><g id="XMLID_586_"><g id="XMLID_24_"><path id="XMLID_28_" d="m277.4 526.5c0-2.9.1-5.8.3-8.6.1-1.2.2-2.4.3-3.5.3-3.2-1 6.1-.3 1.8.8-4.9 1.9-9.8 3.4-14.6.4-1.3.8-2.5 1.3-3.8.7-2 2.9-5.2-.6 1.1 1-1.9 1.8-3.9 2.8-5.9 1.2-2.3 2.5-4.5 3.9-6.6.6-.9 1.2-1.7 1.8-2.6 1.4-2.1-4.3 5.1-.8 1.1 3.1-3.5 6.4-6.6 9.9-9.7 2.2-2-5 3.5-1.5 1.2 1.1-.7 2.1-1.4 3.2-2.1 2-1.3 4.1-2.4 6.2-3.4 1-.5 2-.9 3-1.4-6.2 3.4-3 1.3-1 .6 2.4-.8 4.8-1.6 7.2-2.1 4.7-1.1 0 .7-1.1.1.6.3 4.4-.1 5.1-.1 3.4.1 6.9.3 10.3.4 13.1.2 25.6-11.6 25-25-.6-13.7-11-24.8-25-25-9.2-.1-17.8-.7-27 1.3-6.9 1.5-13.6 4.4-20.1 7.3-11.2 5.1-21.8 13.2-29.7 22.7-18.3 21.8-26.8 48.8-27 77.1-.1 13.1 11.6 25.6 25 25 14-.9 25.3-11.3 25.4-25.3z" fill="#fff"/></g></g><g id="XMLID_602_"><g id="XMLID_18_"><path id="XMLID_22_" d="m285.9 650.2c13.1 0 25.6-11.5 25-25s-11-25-25-25c-13.1 0-25.6 11.5-25 25s10.9 25 25 25z" fill="#fff"/></g></g><g id="XMLID_623_"><path id="XMLID_13_" d="m887.4 307.2c0 65.4-68 119.6-139.3 168.5 0 0-.7.3-1 .5-1.4.6-2.8.9-4.4.9s-3-.3-4.4-.9c-.3-.2-1-.5-1-.5-73.3-48.9-139.3-103.1-139.3-168.5 0-41.7 33.8-75.5 75.5-75.5 31 0 57.6 17.2 69.2 43.2 11.6-26 38.2-43.2 69.2-43.2 41.7 0 75.5 33.8 75.5 75.5z" fill="#ff2444"/></g><g id="XMLID_607_"><path id="XMLID_11_" d="m428.2 129.9c0 38.1-39.6 69.7-81.2 98.2 0 0-.4.2-.6.3-.8.3-1.7.5-2.6.5s-1.8-.2-2.6-.5c-.2-.1-.6-.3-.6-.3-42.7-28.5-81.2-60.1-81.2-98.2 0-24.3 19.7-44 44-44 18.1 0 33.6 10 40.3 25.1 6.8-15.1 22.3-25.1 40.3-25.1 24.5 0 44.2 19.7 44.2 44z" fill="#ff2444"/></g><g id="XMLID_622_"><path id="XMLID_9_" d="m661.4 87.8c0 21.5-22.3 39.2-45.7 55.3 0 0-.2.1-.3.2-.4.2-.9.3-1.4.3s-1-.1-1.4-.3c-.1-.1-.3-.2-.3-.2-24.1-16-45.7-33.8-45.7-55.3 0-13.7 11.1-24.8 24.8-24.8 10.2 0 18.9 5.6 22.7 14.2 3.8-8.5 12.5-14.2 22.7-14.2 13.5 0 24.6 11.1 24.6 24.8z" fill="#ff2444"/></g></g></svg>