<?xml version="1.0" encoding="UTF-8" standalone="no"?>
<!-- Created with Inkscape (http://www.inkscape.org/) -->

<svg
   version="1.1"
   id="svg2007"
   xml:space="preserve"
   width="682.66669"
   height="682.66669"
   viewBox="0 0 682.66669 682.66669"
   xmlns="http://www.w3.org/2000/svg"
   xmlns:svg="http://www.w3.org/2000/svg"><defs
     id="defs2011"><clipPath
       clipPathUnits="userSpaceOnUse"
       id="clipPath2021"><path
         d="M 0,512 H 512 V 0 H 0 Z"
         id="path2019" /></clipPath></defs><g
     id="g2013"
     transform="matrix(1.3333333,0,0,-1.3333333,0,682.66667)"><g
       id="g2015"><g
         id="g2017"
         clip-path="url(#clipPath2021)"><g
           id="g2023"
           transform="translate(434.9824,23.8706)"><path
             d="m 0,0 c 1.251,17.602 5.557,38.713 16.251,60.893 27.866,57.797 -20.642,136.236 -20.642,136.236 0,0 7.116,-61.841 -18.201,-120.754 C -33.654,50.632 -29.242,22.768 -21.115,0 Z"
             style="fill:#09a76d;fill-opacity:1;fill-rule:nonzero;stroke:none"
             id="path2025" /></g><g
           id="g2027"
           transform="translate(432.6221,100.2451)"><path
             d="m 0,0 c 11.521,26.809 16.324,54.222 18.139,76.14 -8.594,25.889 -20.169,44.615 -20.169,44.615 0,0 7.115,-61.841 -18.201,-120.755 -11.063,-25.742 -6.65,-53.606 1.476,-76.375 H 1.477 C -6.65,-53.606 -11.063,-25.742 0,0"
             style="fill:#02905d;fill-opacity:1;fill-rule:nonzero;stroke:none"
             id="path2029" /></g><g
           id="g2031"
           transform="translate(459.8057,129)"><path
             d="m 0,0 c -1.372,46.966 -29.214,92 -29.214,92 0,0 7.115,-61.841 -18.201,-120.755 -11.063,-25.742 -6.65,-53.606 1.477,-76.374 h 21.115 c 1.251,17.602 5.556,38.713 16.251,60.893 1.459,3.026 2.697,6.111 3.755,9.236"
             style="fill:none;stroke:#000000;stroke-width:15;stroke-linecap:round;stroke-linejoin:round;stroke-miterlimit:10;stroke-dasharray:none;stroke-opacity:1"
             id="path2033" /></g><g
           id="g2035"
           transform="translate(287.7979,39.9023)"><path
             d="m 0,0 c -20.084,33.7 -64.555,126.449 -18.727,227.061 48.098,105.592 9.413,198.971 -11.002,236.443 -1.188,2.179 -4.505,0.813 -3.798,-1.565 10.706,-36 25.617,-119.518 -22.786,-219.397 C -106.813,138.335 -88.211,39.124 -77.382,0 Z"
             style="fill:#09a76d;fill-opacity:1;fill-rule:nonzero;stroke:none"
             id="path2037" /></g><g
           id="g2039"
           transform="translate(252.2988,282.4438)"><path
             d="M 0,0 C 26.969,55.65 34.277,106.215 33.615,146.317 26.4,179.049 14.438,205.049 5.77,220.962 4.582,223.141 1.265,221.775 1.973,219.397 12.678,183.398 27.589,99.879 -20.814,0 c -50.5,-104.207 -31.897,-203.418 -21.069,-242.542 h 20.815 C -31.897,-203.418 -50.5,-104.207 0,0"
             style="fill:#02905d;fill-opacity:1;fill-rule:nonzero;stroke:none"
             id="path2041" /></g><g
           id="g2043"
           transform="translate(253.0527,217)"><path
             d="m 0,0 c 3.143,16.268 8.293,33.003 16.019,49.963 48.098,105.593 9.412,198.971 -11.003,236.444 -1.188,2.178 -4.505,0.812 -3.797,-1.565 10.705,-36 25.616,-119.519 -22.787,-219.398 -50.5,-104.207 -31.897,-203.418 -21.069,-242.542 H 34.746 C 20.534,-153.252 -5.879,-99.84 -3.88,-35"
             style="fill:none;stroke:#000000;stroke-width:15;stroke-linecap:round;stroke-linejoin:round;stroke-miterlimit:10;stroke-dasharray:none;stroke-opacity:1"
             id="path2045" /></g><g
           id="g2047"
           transform="translate(160.4385,39.9023)"><path
             d="m 0,0 h 23.666 c 5.213,29.142 3.305,63.86 -16.395,100.109 -50.872,93.606 -56.645,127.326 -27.537,211.375 0.38,1.097 -1.05,1.903 -1.773,0.996 C -38.349,292.031 -101.006,202.639 -39.045,103.856 -13.74,63.514 -3.161,28.425 0,0"
             style="fill:#09a76d;fill-opacity:1;fill-rule:nonzero;stroke:none"
             id="path2049" /></g><g
           id="g2051"
           transform="translate(123.7188,286.7715)"><path
             d="m 0,0 c 2.212,19.015 7.785,39.583 16.454,64.615 0.38,1.096 -1.05,1.903 -1.773,0.996 C -1.629,45.162 -64.286,-44.23 -2.325,-143.013 22.979,-183.355 33.559,-218.444 36.72,-246.869 h 20.415 c -3.161,28.425 -13.74,63.514 -39.045,103.856 C -15.538,-89.4 -12.454,-38.56 0,0"
             style="fill:#02905d;fill-opacity:1;fill-rule:nonzero;stroke:none"
             id="path2053" /></g><g
           id="g2055"
           transform="translate(160.4385,39.9023)"><path
             d="m 0,0 h 23.666 c 5.213,29.142 3.305,63.86 -16.395,100.109 -50.872,93.606 -56.645,127.326 -27.537,211.375 0.38,1.097 -1.05,1.903 -1.773,0.996 C -38.349,292.031 -101.006,202.639 -39.045,103.856 -13.74,63.514 -3.161,28.425 0,0 Z"
             style="fill:none;stroke:#000000;stroke-width:15;stroke-linecap:round;stroke-linejoin:round;stroke-miterlimit:10;stroke-dasharray:none;stroke-opacity:1"
             id="path2057" /></g><g
           id="g2059"
           transform="translate(406.7012,28.9263)"><path
             d="m 0,0 h 23.665 c 5.213,29.142 3.305,63.861 -16.394,100.109 -50.872,93.606 -56.645,127.326 -27.537,211.376 0.379,1.096 -1.05,1.903 -1.774,0.995 C -38.349,292.031 -101.007,202.639 -39.045,103.856 -13.74,63.514 -3.161,28.425 0,0"
             style="fill:#09a76d;fill-opacity:1;fill-rule:nonzero;stroke:none"
             id="path2061" /></g><g
           id="g2063"
           transform="translate(370.1426,277.0996)"><path
             d="m 0,0 c 2.311,18.653 7.821,38.849 16.293,63.311 0.38,1.096 -1.051,1.903 -1.774,0.996 C -1.79,43.857 -64.447,-45.534 -2.486,-144.317 22.818,-184.66 33.397,-219.749 36.559,-248.173 H 56.711 C 53.55,-219.749 42.971,-184.66 17.666,-144.317 -16.342,-90.099 -12.807,-38.714 0,0"
             style="fill:#02905d;fill-opacity:1;fill-rule:nonzero;stroke:none"
             id="path2065" /></g><g
           id="g2067"
           transform="translate(406.7012,28.9263)"><path
             d="m 0,0 h 23.665 c 5.213,29.142 3.305,63.861 -16.394,100.109 -50.872,93.606 -56.645,127.326 -27.537,211.376 0.379,1.096 -1.05,1.903 -1.774,0.995 C -38.349,292.031 -101.007,202.639 -39.045,103.856 -13.74,63.514 -3.161,28.425 0,0 Z"
             style="fill:none;stroke:#000000;stroke-width:15;stroke-linecap:round;stroke-linejoin:round;stroke-miterlimit:10;stroke-dasharray:none;stroke-opacity:1"
             id="path2069" /></g><g
           id="g2071"
           transform="translate(177.3037,33.71)"><path
             d="M 0,0 H 16.541 C 37.855,33.694 55.98,83.657 37.513,144.493 3.066,257.96 4.422,295.849 55.244,381.155 c 0.593,0.995 -0.644,2.07 -1.536,1.333 C 32.258,364.767 -57.653,281.216 -12.028,158.942 14.766,87.135 10.395,34.256 0,0"
             style="fill:#09a76d;fill-opacity:1;fill-rule:nonzero;stroke:none"
             id="path2073" /></g><g
           id="g2075"
           transform="translate(185.7441,192.6519)"><path
             d="m 0,0 c -27.872,74.698 -5.162,134.939 21.62,174.554 6.386,14.595 14.737,30.125 25.184,47.659 0.592,0.995 -0.645,2.07 -1.536,1.333 C 23.817,205.825 -66.093,122.274 -20.469,0 6.325,-71.807 1.954,-124.686 -8.439,-158.942 h 16.54 c 2.446,3.866 4.844,7.957 7.156,12.243 C 23.005,-112.573 23.788,-63.753 0,0"
             style="fill:#02905d;fill-opacity:1;fill-rule:nonzero;stroke:none"
             id="path2077" /></g><g
           id="g2079"
           transform="translate(177.3037,33.71)"><path
             d="M 0,0 H 16.541 C 37.855,33.694 55.98,83.657 37.513,144.493 3.066,257.96 4.422,295.849 55.244,381.155 c 0.593,0.995 -0.644,2.07 -1.536,1.333 C 32.258,364.767 -57.653,281.216 -12.028,158.942 14.766,87.135 10.395,34.256 0,0 Z"
             style="fill:none;stroke:#000000;stroke-width:15;stroke-linecap:round;stroke-linejoin:round;stroke-miterlimit:10;stroke-dasharray:none;stroke-opacity:1"
             id="path2081" /></g><g
           id="g2083"
           transform="translate(286.5889,39.9023)"><path
             d="M 0,0 C 1.251,17.602 5.558,38.714 16.251,60.894 44.118,118.69 -4.391,197.13 -4.391,197.13 c 0,0 7.117,-61.842 -18.201,-120.755 C -33.653,50.633 -29.241,22.769 -21.115,0 Z"
             style="fill:#09a76d;fill-opacity:1;fill-rule:nonzero;stroke:none"
             id="path2085" /></g><g
           id="g2087"
           transform="translate(284.6221,116.2773)"><path
             d="m 0,0 c 11.355,26.424 16.184,53.433 18.058,75.191 -8.622,26.379 -20.482,45.563 -20.482,45.563 0,0 7.116,-61.841 -18.2,-120.754 -11.063,-25.742 -6.65,-53.607 1.477,-76.375 H 1.477 C -6.65,-53.607 -11.063,-25.742 0,0"
             style="fill:#02905d;fill-opacity:1;fill-rule:nonzero;stroke:none"
             id="path2089" /></g><g
           id="g2091"
           transform="translate(286.5889,39.9023)"><path
             d="M 0,0 C 1.251,17.602 5.558,38.714 16.251,60.894 44.118,118.69 -4.391,197.13 -4.391,197.13 c 0,0 7.117,-61.842 -18.201,-120.755 C -33.653,50.633 -29.241,22.769 -21.115,0 Z"
             style="fill:none;stroke:#000000;stroke-width:15;stroke-linecap:round;stroke-linejoin:round;stroke-miterlimit:10;stroke-dasharray:none;stroke-opacity:1"
             id="path2093" /></g><g
           id="g2095"
           transform="translate(249.8086,7.5)"><path
             d="m 0,0 c -10.64,36.031 -43.957,62.333 -83.436,62.333 -37.965,0 -70.233,-24.325 -82.113,-58.235 C -166.251,2.095 -164.734,0 -162.611,0 Z"
             style="fill:#ffbd86;fill-opacity:1;fill-rule:nonzero;stroke:none"
             id="path2097" /></g><g
           id="g2099"
           transform="translate(126.1738,11.5981)"><path
             d="m 0,0 c 9.617,27.453 32.601,48.619 61.149,55.686 -6.711,1.66 -13.725,2.549 -20.95,2.549 C 2.233,58.235 -30.034,33.91 -41.914,0 c -0.702,-2.003 0.814,-4.098 2.937,-4.098 H 2.938 C 0.814,-4.098 -0.702,-2.003 0,0"
             style="fill:#f6a96c;fill-opacity:1;fill-rule:nonzero;stroke:none"
             id="path2101" /></g><g
           id="g2103"
           transform="translate(178.5684,7.5)"><path
             d="M 0,0 H 71.24 C 60.602,36.031 27.283,62.333 -12.195,62.333 -50.161,62.333 -82.429,38.008 -94.309,4.098 -95.011,2.095 -93.494,0 -91.371,0 H -35"
             style="fill:none;stroke:#000000;stroke-width:15;stroke-linecap:round;stroke-linejoin:round;stroke-miterlimit:10;stroke-dasharray:none;stroke-opacity:1"
             id="path2105" /></g><g
           id="g2107"
           transform="translate(318.3379,7.5)"><path
             d="m 0,0 c -7.537,25.521 -31.137,44.153 -59.101,44.153 -27.963,0 -51.564,-18.632 -59.1,-44.153 z"
             style="fill:#ffbd86;fill-opacity:1;fill-rule:nonzero;stroke:none"
             id="path2109" /></g><g
           id="g2111"
           transform="translate(275.0684,49.5889)"><path
             d="m 0,0 c -5.053,1.34 -10.356,2.063 -15.831,2.063 -27.964,0 -51.564,-18.63 -59.101,-44.152 h 31.663 C -37.208,-21.564 -20.754,-5.505 0,0"
             style="fill:#f6a96c;fill-opacity:1;fill-rule:nonzero;stroke:none"
             id="path2113" /></g><g
           id="g2115"
           transform="translate(318.3379,7.5)"><path
             d="m 0,0 c -7.537,25.521 -31.137,44.153 -59.101,44.153 -27.963,0 -51.564,-18.632 -59.1,-44.153 z"
             style="fill:none;stroke:#000000;stroke-width:15;stroke-linecap:round;stroke-linejoin:round;stroke-miterlimit:10;stroke-dasharray:none;stroke-opacity:1"
             id="path2117" /></g><g
           id="g2119"
           transform="translate(471.7578,7.5)"><path
             d="m 0,0 c 2.176,0 3.662,2.18 2.896,4.217 -8.777,23.331 -31.288,39.936 -57.687,39.936 -27.964,0 -51.563,-18.632 -59.1,-44.153 z"
             style="fill:#ffbd86;fill-opacity:1;fill-rule:nonzero;stroke:none"
             id="path2121" /></g><g
           id="g2123"
           transform="translate(435.5488,48.7944)"><path
             d="m 0,0 c -5.863,1.853 -12.104,2.858 -18.582,2.858 -27.964,0 -51.564,-18.631 -59.1,-44.152 h 37.143 C -34.747,-21.678 -19.46,-6.144 0,0"
             style="fill:#f6a96c;fill-opacity:1;fill-rule:nonzero;stroke:none"
             id="path2125" /></g><g
           id="g2127"
           transform="translate(471.7578,7.5)"><path
             d="m 0,0 c 2.176,0 3.662,2.18 2.896,4.217 -8.777,23.331 -31.288,39.936 -57.687,39.936 -27.964,0 -51.563,-18.632 -59.1,-44.153 z"
             style="fill:none;stroke:#000000;stroke-width:15;stroke-linecap:round;stroke-linejoin:round;stroke-miterlimit:10;stroke-dasharray:none;stroke-opacity:1"
             id="path2129" /></g><g
           id="g2131"
           transform="translate(77.4258,118.0215)"><path
             d="m 0,0 c 0,-11.124 -9.018,-20.142 -20.142,-20.142 -11.124,0 -20.141,9.018 -20.141,20.142 0,11.124 9.017,20.142 20.141,20.142 C -9.018,20.142 0,11.124 0,0"
             style="fill:#62dbfb;fill-opacity:1;fill-rule:nonzero;stroke:none"
             id="path2133" /></g><g
           id="g2135"
           transform="translate(54,118.0215)"><path
             d="M 0,0 C 0,8.11 4.805,15.083 11.713,18.275 9.146,19.461 6.298,20.142 3.284,20.142 -7.84,20.142 -16.857,11.124 -16.857,0 c 0,-11.124 9.017,-20.142 20.141,-20.142 3.014,0 5.862,0.681 8.429,1.867 C 4.805,-15.083 0,-8.11 0,0"
             style="fill:#01d0fb;fill-opacity:1;fill-rule:nonzero;stroke:none"
             id="path2137" /></g><g
           id="g2139"
           transform="translate(361.1504,71.8584)"><path
             d="m 0,0 c 0,-11.124 -9.018,-20.142 -20.142,-20.142 -11.124,0 -20.141,9.018 -20.141,20.142 0,11.124 9.017,20.142 20.141,20.142 C -9.018,20.142 0,11.124 0,0"
             style="fill:#62dbfb;fill-opacity:1;fill-rule:nonzero;stroke:none"
             id="path2141" /></g><g
           id="g2143"
           transform="translate(339.7168,71.8579)"><path
             d="M 0,0 C 0,7.717 4.344,14.414 10.717,17.796 7.903,19.289 4.698,20.142 1.292,20.142 -9.832,20.142 -18.85,11.124 -18.85,0 c 0,-11.124 9.018,-20.142 20.142,-20.142 3.406,0 6.611,0.853 9.425,2.347 C 4.344,-14.413 0,-7.717 0,0"
             style="fill:#01d0fb;fill-opacity:1;fill-rule:nonzero;stroke:none"
             id="path2145" /></g><g
           id="g2147"
           transform="translate(454.8672,273.1416)"><path
             d="m 0,0 c 0,-11.124 -9.019,-20.142 -20.143,-20.142 -11.124,0 -20.141,9.018 -20.141,20.142 0,11.124 9.017,20.142 20.141,20.142 C -9.019,20.142 0,11.124 0,0"
             style="fill:#62dbfb;fill-opacity:1;fill-rule:nonzero;stroke:none"
             id="path2149" /></g><g
           id="g2151"
           transform="translate(431.7168,273.1416)"><path
             d="m 0,0 c 0,8.056 4.741,14.988 11.575,18.209 -2.602,1.227 -5.499,1.933 -8.566,1.933 -11.124,0 -20.143,-9.018 -20.143,-20.142 0,-11.124 9.019,-20.142 20.143,-20.142 3.067,0 5.964,0.706 8.566,1.933 C 4.741,-14.987 0,-8.056 0,0"
             style="fill:#01d0fb;fill-opacity:1;fill-rule:nonzero;stroke:none"
             id="path2153" /></g><g
           id="g2155"
           transform="translate(372.1504,395.8584)"><path
             d="m 0,0 c 0,-11.124 -9.018,-20.142 -20.142,-20.142 -11.124,0 -20.141,9.018 -20.141,20.142 0,11.124 9.017,20.142 20.141,20.142 C -9.018,20.142 0,11.124 0,0"
             style="fill:#62dbfb;fill-opacity:1;fill-rule:nonzero;stroke:none"
             id="path2157" /></g><g
           id="g2159"
           transform="translate(349.7168,395.8579)"><path
             d="M 0,0 C 0,7.915 4.576,14.744 11.217,18.037 8.524,19.372 5.501,20.142 2.292,20.142 -8.832,20.142 -17.85,11.124 -17.85,0 c 0,-11.124 9.018,-20.142 20.142,-20.142 3.209,0 6.232,0.77 8.925,2.106 C 4.576,-14.743 0,-7.915 0,0"
             style="fill:#01d0fb;fill-opacity:1;fill-rule:nonzero;stroke:none"
             id="path2161" /></g><g
           id="g2163"
           transform="translate(77.4258,118.0215)"><path
             d="m 0,0 c 0,-11.124 -9.018,-20.142 -20.142,-20.142 -11.124,0 -20.141,9.018 -20.141,20.142 0,11.124 9.017,20.142 20.141,20.142 C -9.018,20.142 0,11.124 0,0 Z"
             style="fill:none;stroke:#000000;stroke-width:15;stroke-linecap:round;stroke-linejoin:round;stroke-miterlimit:10;stroke-dasharray:none;stroke-opacity:1"
             id="path2165" /></g><g
           id="g2167"
           transform="translate(361.1504,71.8584)"><path
             d="m 0,0 c 0,-11.124 -9.018,-20.142 -20.142,-20.142 -11.124,0 -20.141,9.018 -20.141,20.142 0,11.124 9.017,20.142 20.141,20.142 C -9.018,20.142 0,11.124 0,0 Z"
             style="fill:none;stroke:#000000;stroke-width:15;stroke-linecap:round;stroke-linejoin:round;stroke-miterlimit:10;stroke-dasharray:none;stroke-opacity:1"
             id="path2169" /></g><g
           id="g2171"
           transform="translate(454.8672,273.1416)"><path
             d="m 0,0 c 0,-11.124 -9.019,-20.142 -20.143,-20.142 -11.124,0 -20.141,9.018 -20.141,20.142 0,11.124 9.017,20.142 20.141,20.142 C -9.019,20.142 0,11.124 0,0 Z"
             style="fill:none;stroke:#000000;stroke-width:15;stroke-linecap:round;stroke-linejoin:round;stroke-miterlimit:10;stroke-dasharray:none;stroke-opacity:1"
             id="path2173" /></g><g
           id="g2175"
           transform="translate(372.1504,395.8584)"><path
             d="m 0,0 c 0,-11.124 -9.018,-20.142 -20.142,-20.142 -11.124,0 -20.141,9.018 -20.141,20.142 0,11.124 9.017,20.142 20.141,20.142 C -9.018,20.142 0,11.124 0,0 Z"
             style="fill:none;stroke:#000000;stroke-width:15;stroke-linecap:round;stroke-linejoin:round;stroke-miterlimit:10;stroke-dasharray:none;stroke-opacity:1"
             id="path2177" /></g><g
           id="g2179"
           transform="translate(284.0088,7.5)"><path
             d="M 0,0 H 115.686"
             style="fill:none;stroke:#000000;stroke-width:15;stroke-linecap:round;stroke-linejoin:round;stroke-miterlimit:10;stroke-dasharray:none;stroke-opacity:1"
             id="path2181" /></g></g></g></g></svg>
