<svg id="Filloutline_expand" enable-background="new 0 0 504.668 504.078" height="512" viewBox="0 0 504.668 504.078" width="512" xmlns="http://www.w3.org/2000/svg"><g><g><path d="m500.669 301.559c-26.38 10.86-57.6-20.97-76.75-22.17-19.16-1.2-41.34 16.44-41.34 16.44 7.83-18.61 9.77-36.59-4.43-50.79-14.19-14.19-28.5-16.39-40.69-12.64l-105.06 105.06c-3.75 12.19-1.55 26.5 12.65 40.69 14.19 14.2 32.17 12.26 50.78 4.43 0 0-10.05 20.84 2.38 37.89 12.42 17.05 37.86 16.63 46.6 27.65 8.74 11.03 6.28 29.24 6.28 29.24s8.71-12.18 11.3-24.72l44.59 2.81c2.19 4.04 4.87 7.74 8.6 10.78 14.23 11.61 38.52 8.23 38.52 8.23-21.15-16.3-16.97-47.87-32.28-63.17-15.31-15.31-39.46-21.02-53.39-34.95 19.47 11.56 40.82 3.73 59.67 15.11 18.86 11.38 47.74 61.27 47.74 61.27-1.43-26.64-6.99-54.3-17-73.6l1.58-47.79c17.97-1.3 40.25-29.77 40.25-29.77z" fill="#d6eae8"/><path d="m275.839 347.359c5.62 5.63 6.78 13.6 2.58 17.8-4.21 4.21-12.18 3.05-17.8-2.58-5.63-5.63-6.79-13.59-2.58-17.8 4.2-4.2 12.17-3.05 17.8 2.58z" fill="#5d5560"/><ellipse cx="354.969" cy="268.229" fill="#5d5560" rx="10.762" ry="14.411" transform="matrix(.707 -.707 .707 .707 -85.699 329.563)"/><g fill="#c3ddda"><path d="m406.069 477.779c2.4 10.34 15.86 21.72 15.86 21.72s-21.1 3.56-34.58-7.14-14.8-29.56-24.96-39.72c.98-4.69 1.09-9.43-.42-13.6-5.55-15.31-25.55-20.81-33.84-32.9-8.28-12.09-8.02-37.71-8.02-37.71s2.9 19.69 16.65 30.15c13.76 10.46 37.06 8.74 51.36 21.85 10.55 9.66 12.73 23.67 18.86 35.02-.11.42-3.26 12.17-.91 22.33z"/><path d="m493.209 357.409c10.56 18.53 5.16 45.66 5.16 45.66-11.39-13.85-24.35-22.55-39.53-23.95-3.24-6.24-6.94-11.61-11.11-15.78-17.11-17.11-40.21-13.88-51.79-22.23-6.53-4.71-10.56-11.79-12.84-17.07h.01s16.44-11.3 32.38-9.27c15.93 2.03 26.29 17.91 44.93 16.56 0 0 22.24 7.55 32.79 26.08z"/><path d="m87.849 272.869h-.01s-38.81 13.62-65.83-13.4c-27.02-27.03-18.94-115.05-5.49-173.54 48.271 39.304 73.921 110.774 71.33 186.94z"/><path d="m259.469 22.009c27.02 27.02 13.4 65.82 13.4 65.82l-.01.01c-89.273 22.162-155.453-17.925-186.95-71.32v-.01c58.49-13.44 146.53-21.52 173.56 5.5z"/></g><path d="m363.609 164.679c-1.72 20.9-10.44 43.55-26.15 67.72-11.89 18.29-27.79 37.44-47.7 57.36-19.92 19.91-39.07 35.81-57.36 47.7-24.17 15.71-46.82 24.43-67.72 26.15-29.47-26.39-55.32-57.81-76.83-90.74-42.79-65.45-68.44-136.92-71.33-186.94 0-.01 0-.01 0-.02-1.46-25.18 2.86-44.92 13.66-55.73 10.81-10.8 30.55-15.12 55.73-13.66 50.02 2.88 121.49 28.54 186.95 71.32 32.94 21.51 64.35 47.37 90.75 76.84z" fill="#e7f2f1"/><path d="m316.199 199.759c4.97 4.97 6.16 11.83 2.67 15.33-3.5 3.5-10.37 2.31-15.34-2.66s-6.16-11.84-2.66-15.34c3.5-3.49 10.36-2.3 15.33 2.67z" fill="#ad6a6a"/><path d="m300.089 164.589c4.97 4.97 6.16 11.83 2.66 15.33-3.49 3.5-10.36 2.3-15.33-2.67s-6.16-11.83-2.66-15.33 10.36-2.3 15.33 2.67z" fill="#ad6a6a"/><path d="m272.519 192.159c4.97 4.97 6.16 11.83 2.66 15.33-3.49 3.5-10.36 2.3-15.33-2.67-4.97-4.96-6.16-11.83-2.66-15.33 3.49-3.5 10.36-2.3 15.33 2.67z" fill="#ad6a6a"/><path d="m337.459 232.399c5.48-1.68 11.38-2.17 17.51-.9-39.76 86.01-123.4 123.78-123.4 123.78h-.01c-1.34-6.24-.87-12.25.84-17.82 18.29-11.89 37.44-27.79 57.36-47.7 19.91-19.92 35.81-39.07 47.7-57.36z" fill="#c3ddda"/><path d="m363.609 164.679c-1.72 20.9-10.44 43.55-26.15 67.72-11.89 18.29-27.79 37.44-47.7 57.36-19.92 19.91-39.07 35.81-57.36 47.7-24.17 15.71-46.82 24.43-67.72 26.15 221.97-146.51-90.16-347.35-90.16-347.35 3.66-.06 7.46.03 11.39.26 50.02 2.88 121.49 28.54 186.95 71.32 32.94 21.51 64.35 47.37 90.75 76.84z" fill="#d6eae8"/></g><g fill="#3a322b"><path d="m278.664 344.533c-3.328-3.328-7.479-5.496-11.689-6.106-4.575-.662-8.863.623-11.768 3.527-2.904 2.905-4.19 7.194-3.527 11.768.61 4.21 2.779 8.361 6.106 11.688 3.328 3.328 7.479 5.497 11.689 6.107.79.115 1.571.171 2.338.171 3.676 0 7.027-1.295 9.43-3.697 2.904-2.905 4.19-7.194 3.527-11.768-.609-4.211-2.778-8.362-6.106-11.69zm-3.078 17.8c-1.509 1.509-3.756 1.441-4.963 1.267-2.478-.359-5.094-1.761-7.18-3.847-2.085-2.085-3.487-4.702-3.846-7.179-.175-1.206-.243-3.454 1.267-4.964 1.087-1.087 2.557-1.355 3.746-1.355.461 0 .88.041 1.218.089 2.478.359 5.094 1.761 7.179 3.846 3.99 3.99 5.172 9.551 2.579 12.143z"/><path d="m341.953 255.206c-5.755 5.756-4.598 16.279 2.58 23.457 4.105 4.105 9.304 6.241 14.08 6.241 3.575 0 6.914-1.197 9.378-3.662 5.755-5.756 4.598-16.279-2.58-23.456-7.179-7.178-17.701-8.335-23.458-2.58zm20.38 20.38c-2.591 2.593-8.153 1.411-12.143-2.58-3.99-3.991-5.172-9.552-2.58-12.144 2.593-2.591 8.153-1.411 12.144 2.58 3.99 3.991 5.171 9.552 2.579 12.144z"/><path d="m503.818 304.028c1.119-1.43 1.135-3.435.038-4.882s-3.033-1.974-4.71-1.282c-14.708 6.059-32.136-3.298-47.512-11.552-9.974-5.354-19.394-10.411-27.469-10.916-12.177-.77-25.142 5.248-33.841 10.396 4.95-18.053 1.854-32.381-9.341-43.578-12.891-12.89-25.355-15.992-35.355-15.361 13.007-21.787 20.369-42.458 21.965-61.847.09-1.095-.274-2.179-1.007-2.997-24.544-27.403-55.116-53.347-89.041-75.837 2.727-10.001 9.098-42.642-15.251-66.992-30.27-30.269-125.066-18.499-176.741-6.687-1.533-.083-3.055-.153-4.551-.194-24.573-.674-43.125 4.53-53.649 15.054-10.524 10.525-15.729 29.077-15.053 53.65.041 1.495.111 3.016.194 4.548-11.812 51.675-23.583 146.473 6.686 176.743 14.439 14.439 31.792 18.075 45.614 18.074 9.497 0 17.309-1.715 21.377-2.825 22.49 33.925 48.435 64.497 75.838 89.042.737.66 1.688 1.021 2.669 1.021.109 0 .219-.004.328-.014 19.39-1.596 40.06-8.958 61.848-21.965-.631 10 2.471 22.464 15.361 35.355 11.925 11.925 27.405 14.66 47.154 8.271-2.032 8.39-3.058 21.685 5.605 33.572 7.648 10.494 19.337 14.825 29.651 18.646 7.139 2.645 13.882 5.144 17.046 9.136 7.553 9.53 5.47 26.051 5.449 26.211-.246 1.821.781 3.576 2.489 4.254.48.19.979.282 1.473.282 1.263 0 2.487-.599 3.255-1.674.408-.57 5.978-8.459 9.622-18.298 1.801 3.078 3.356 6.557 4.954 10.164 3.613 8.156 7.708 17.401 15.946 23.942 9.015 7.158 20.804 8.589 28.794 8.589 5.044 0 8.575-.571 8.937-.632 1.535-.259 2.781-1.385 3.192-2.887.412-1.501-.085-3.105-1.274-4.111-3.46-2.928-12.819-12.152-14.541-19.578-.85-3.666-.887-7.627-.624-11.073 1.124 1.238 2.345 2.422 3.703 3.531 15.404 12.571 40.538 9.241 41.601 9.094 1.596-.222 2.902-1.38 3.315-2.937s-.148-3.21-1.425-4.193c-10.631-8.192-14.377-21.087-18-33.557-3.097-10.662-6.3-21.686-13.892-29.278-8.265-8.265-18.738-13.753-28.865-19.061-1.317-.69-2.623-1.376-3.914-2.061 2.131.235 4.254.428 6.361.618 9.871.889 19.195 1.728 27.803 6.924 17.759 10.72 46.062 59.357 46.346 59.847.729 1.259 2.063 1.996 3.461 1.996.379 0 .763-.054 1.141-.167 1.772-.527 2.952-2.201 2.853-4.048-1.426-26.599-6.44-50.268-14.096-68.084 10.491 2.865 20.215 9.85 29.542 21.187.771.936 1.91 1.458 3.089 1.458.324 0 .651-.039.974-.121 1.499-.376 2.647-1.583 2.949-3.099.232-1.167 5.563-28.82-5.604-48.418-6.581-11.55-17.199-19.047-25.021-23.331 16.172-7.83 31.376-27.073 32.154-28.068zm-319.29-295.944c35.87-.352 60.794 5.438 72.108 16.753 19.398 19.397 16.188 45.834 13.778 56.699-15.645-10.012-31.94-19.285-48.645-27.621-38.589-19.255-77.42-32.625-110.764-38.426 25.495-4.547 51.327-7.185 73.523-7.405zm-159.691 248.553c-11.314-11.314-17.107-36.249-16.753-72.109.219-22.196 2.858-48.029 7.406-73.524 5.801 33.344 19.171 72.176 38.426 110.765 8.335 16.705 17.609 33 27.621 48.645-10.87 2.412-37.304 5.618-56.7-13.777zm36.238-38.439c-24.885-49.871-39.748-99.957-40.778-137.415-.614-22.322 3.782-38.841 12.714-47.772 8.383-8.383 23.449-12.771 43.725-12.771 1.326 0 2.677.019 4.047.057 37.458 1.03 87.543 15.893 137.415 40.778 54.505 27.197 104.603 64.436 141.266 104.98-3.588 35.664-27.983 76.321-72.535 120.874s-85.209 68.947-120.874 72.535c-40.545-36.664-77.784-86.761-104.98-141.266zm341.101 260.48c1.468 6.333 6.342 12.777 10.526 17.375-6.711-.108-16.025-1.396-22.867-6.828-6.696-5.316-10.209-13.247-13.606-20.917-2.635-5.949-5.365-12.067-9.573-16.923.733-4.683.633-9.409-.924-13.705-3.619-9.982-12.13-15.932-20.362-21.686-5.564-3.89-10.82-7.563-13.939-12.116-1.657-2.419-2.939-5.495-3.932-8.821 1.947 2.418 4.212 4.707 6.844 6.707 6.967 5.295 15.966 7.697 24.669 10.02 9.546 2.548 19.417 5.182 26.406 11.588 6.373 5.841 9.398 13.514 12.602 21.638 1.446 3.666 2.917 7.382 4.724 10.947-.858 3.789-2.661 13.693-.568 22.721zm87.56-119.289c6.221 10.919 6.41 25.428 5.738 34.463-10.552-10.733-21.79-16.803-34.119-18.466-3.26-5.933-6.876-10.951-10.8-14.876-11.135-11.135-24.702-14.297-35.604-16.837-6.834-1.593-12.736-2.969-16.674-5.81-4.596-3.317-7.836-8.061-10.014-12.284 5.101-2.888 16.163-8.187 26.716-6.843 6.127.781 11.547 4.023 17.286 7.457 7.254 4.34 15.407 9.218 25.943 9.218.51 0 1.035-.033 1.557-.056 3.571 1.368 21.276 8.773 29.971 24.034zm-29.61-32.047c-9.241.673-16.292-3.549-23.754-8.014-6.192-3.705-12.595-7.536-20.383-8.527-12.297-1.57-24.549 3.896-30.838 7.348-.426-1.303-.626-2.11-.634-2.142-.507-2.15-2.66-3.479-4.812-2.975-2.15.507-3.482 2.661-2.975 4.812.167.706 4.222 17.386 16.865 26.508 5.239 3.78 12.186 5.399 19.539 7.113 10.426 2.43 22.243 5.184 31.762 14.704 12.406 12.405 21.747 38.452 25.515 70.064-10.218-15.956-27.218-40.34-40.246-48.204-10.187-6.149-20.879-7.112-31.219-8.043-10.025-.902-19.495-1.755-28.481-7.09-17.634-10.47-22.237-29.252-22.303-29.529-.495-2.149-2.637-3.489-4.789-3-2.154.492-3.5 2.637-3.008 4.791.206.899 5.244 22.018 25.588 34.352 7.2 7.053 16.811 12.097 26.115 16.973 9.597 5.029 19.52 10.23 26.922 17.632 6.14 6.139 8.921 15.715 11.867 25.853 3.002 10.336 6.323 21.764 13.867 30.933-7.761-.127-18.979-1.536-26.618-7.77-6.404-5.226-9.436-12.915-12.645-21.054-3.395-8.61-6.906-17.513-14.639-24.601-8.436-7.732-19.271-10.624-29.749-13.42-8.321-2.221-16.18-4.318-21.892-8.66-12.25-9.311-15.095-27.377-15.121-27.552-.304-2.065-2.152-3.551-4.229-3.408-2.083.142-3.707 1.862-3.728 3.95-.011 1.098-.17 27.029 8.727 40.014 3.942 5.753 10.049 10.022 15.956 14.151 7.543 5.272 14.668 10.253 17.423 17.855 2.3 6.343-.154 15.009-3.442 22.318-.865-5.685-2.791-11.993-6.827-17.085-4.555-5.748-12.318-8.624-20.536-11.668-9.705-3.596-19.74-7.314-25.966-15.857-10.822-14.849-2.093-33.623-2.008-33.802.722-1.498.441-3.287-.704-4.492-1.146-1.206-2.917-1.577-4.451-.932-20.572 8.654-35.319 7.523-46.405-3.563-11.234-11.235-15.254-23.125-12.009-35.359 18.193-11.987 37.128-27.787 56.722-47.381s35.394-38.529 47.381-56.722c12.234-3.246 24.124.774 35.359 12.009 11.086 11.086 12.218 25.832 3.563 46.405-.708 1.684-.185 3.632 1.27 4.736s3.473 1.082 4.905-.052c.21-.167 21.238-16.68 38.603-15.58 6.33.396 15.002 5.051 24.184 9.98 13.141 7.055 27.632 14.842 41.986 14.473-8.235 8.557-20.234 18.823-29.708 19.508z"/><path d="m303.533 212.426c4.97 4.97 11.834 6.163 15.332 2.665s2.305-10.362-2.665-15.332-11.834-6.163-15.332-2.665-2.305 10.362 2.665 15.332z"/><path d="m302.753 179.918c3.498-3.498 2.304-10.362-2.665-15.332-4.97-4.97-11.834-6.163-15.332-2.665s-2.305 10.362 2.665 15.332 11.834 6.163 15.332 2.665z"/><ellipse cx="266.183" cy="198.491" rx="8.957" ry="12.726" transform="matrix(.707 -.707 .707 .707 -62.391 246.359)"/><path d="m64.648 166.034c-3.896 1.81-4.654 8.445-1.693 14.819s8.521 10.074 12.417 8.263c3.896-1.81 4.654-8.445 1.693-14.819-2.961-6.373-8.521-10.073-12.417-8.263z"/><path d="m62.716 130.519c-2.962-6.374-8.521-10.074-12.417-8.263-3.896 1.81-4.654 8.445-1.693 14.819 2.962 6.374 8.521 10.074 12.417 8.263 3.896-1.81 4.654-8.445 1.693-14.819z"/><path d="m67.566 100.367c-3.896 1.81-4.654 8.445-1.693 14.819s8.521 10.074 12.417 8.263c3.896-1.81 4.654-8.445 1.693-14.819s-8.52-10.073-12.417-8.263z"/><path d="m53.362 96.818c3.896-1.81 4.654-8.445 1.693-14.819s-8.521-10.074-12.417-8.263-4.654 8.445-1.693 14.819 8.52 10.073 12.417 8.263z"/><path d="m67.758 66.949c3.896-1.81 4.654-8.445 1.693-14.819-2.962-6.374-8.521-10.074-12.417-8.263s-4.654 8.445-1.693 14.819 8.52 10.073 12.417 8.263z"/></g></g></svg>