<svg id="Filloutline_expand" enable-background="new 0 0 504 503.957" height="512" viewBox="0 0 504 503.957" width="512" xmlns="http://www.w3.org/2000/svg"><g><g><path d="m479.22 445.842 4.58-58.98 5.43-23.56-13.77-55.12-37.61-78.15-62.67-78.9-60.36-36.42-71.06-23.71-81.18 16.98c-29.407-1.99-36.959-15.725-25.98-39.42l-19.66-38.72-30.52-22.7-38.73-1.45c-6.6 5.6-14.576 7.429-23.46 6.77l-19.85 27.61 20.51 50.81c64.963 4.519 108.435 22.603 87.11 81.59v.01l-64.4 47.94-10.23 45.34-1.79 54.68 21.61 46.91c10.892 5.057 15.147 14.25 15.43 25.92l55.22-21.87 5.06-26.05c-12.262-12.795-15.292-25.962-3.32-39.73-8.93-6.926-10.39-14.859-2.14-24.1-8.018-16.832-7.865-28.405 8.24-29.71 16.438 4.686 23.575 14.777 22.19 29.82l1.37 62.8s0 0 .01.01c23.716 25.639 47.934 44.99 73.72 44.68l1.82-31.76 103.47 56.25 17.62 27.26 31.74 24.68c9.598-1.661 16.077 2.163 20.19 9.79l36.25 13.67 44.12-15.56c-8.639-8.697-12.739-17.801-8.96-27.61z" fill="#9e4949"/><path d="m162.58 107.982s-11.68-9.15-17.94-18.07c-2.13-3.04-4.43-11.2-8.04-21.35l-19.66-38.72c-6.27-8.11-14.07-15.26-23.93-20.03-2.16-1.04-4.36-1.93-6.59-2.67l-38.73-1.44v-.01c-8.62 1.63-16.68 4.17-23.46 6.77l-19.85 27.61c1.18 15.08 5.69 36.25 20.51 50.81 25.39 24.96 54.45 17.06 72.75 33.29 8.17 7.24 12.62 26.57 14.36 48.3 12.68-3.08 22.3-4.3 22.3-4.3h.01c-.85-3.62-1.28-6.89-1.26-9.77.12-19.03 12.39-37.27 29.53-50.42z" fill="#f1c27d"/><path d="m201.93 362.552c6.29 13.79 31.04 26.57 31.04 26.57-7.27 8.23-25.37 13.44-35.8 7.38-9.59-5.57-28.24-30.03-37.92-52.06.42.14 12.29 4.14 20.42-2.23 8.29-6.48 9.96-26.09 9.96-26.09 6.27 6.29 12.74 12.53 19.31 18.61 0 0-13.3 14.03-7.01 27.82z" fill="#e0ac69"/><path d="m499.99 436.502c.21 3.93-2.57 7.44-6.45 8.1-4.7.81-9.47 1.24-14.32 1.24-1-2.26-2.06-4.51-3.19-6.75-3.23-6.42-6.97-12.81-11.22-19.17-4.62-6.91-9.83-13.79-15.62-20.64 15.71-.92 27.95-4.88 34.61-12.42 9.22 15.78 15.24 32.2 16.19 49.64z" fill="#f1c27d"/><path d="m309.76 363.342c5.07 2.54 10.23 4.96 15.44 7.27 0 0 2.19 20.29 13.06 43-16.34-4.5-38.66-12.47-61.94-26.26-12.55-7.44-26.86-17.89-41.53-29.99-8.58-7.08-17.29-14.71-25.85-22.63-6.57-6.08-13.04-12.32-19.31-18.61-11.57-11.6-22.42-23.36-31.76-34.49-9.04-10.77-16.68-20.94-22.19-29.82 2.83-3.19 5.94-5.95 9.08-8.31 10.93-8.27 22.08-11.75 22.08-11.75 7.32 10.66 15.58 21.64 24.53 32.53 10.5 12.79 21.94 25.46 33.89 37.3 11.92 11.84 24.36 22.86 36.89 32.41 4.98 3.79 9.98 7.36 14.97 10.65 10.18 6.72 21.19 12.98 32.64 18.7z" fill="#f1c27d"/><path d="m490.44 491.312c.27 5.57-4.99 9.78-10.38 8.36-8.52-2.23-21.5-5.86-36-10.66 0 0 1.23-30.61-14.5-34.08-15.74-3.47-21.75 20.41-21.75 20.41-7.02-3.05-13.85-6.32-20.19-9.79 0 0 13.4-17.53 2.6-28.52-10.8-11-34.34 3.84-34.34 3.84-7.54-8.71-13.27-18.18-17.62-27.26-10.87-22.71-13.06-43-13.06-43 7.95 3.52 16.04 6.77 24.14 9.73 0 0 5.26 29.36 21.39 33.92 16.13 4.55 24.62-20.44 24.62-20.44 2.86.63 5.7 1.21 8.51 1.73 1.69.32 3.37.62 5.04.9 0 0 4.08 24.17 21.08 31.22 17.01 7.05 34.83-7.75 34.83-7.75 4.25 6.36 7.99 12.75 11.22 19.17 0 0-20.11 5.46-16.78 20.14s28.93 14.22 28.93 14.22c1.21 5.93 1.97 11.88 2.26 17.86z" fill="#ffdbac"/><path d="m140.12 185.122c5.24 12.21 13.21 26.38 23.14 41.34 1.17 1.75 2.36 3.51 3.58 5.29 0 0-11.15 3.48-22.08 11.75-11.43-12.32-31.28-11.09-37.93 4.17-6.56 15.02 4.9 26.91 20.61 33.85.26 7.39 1.15 15.62 2.14 24.1 0 0-11.55-7.65-20.24-3.6-8.68 4.05-17.38 21.99-11.19 33.42 6.19 11.42 34.75 9.91 34.75 9.91-.02 5.7-.46 11-1.52 15.68-.8 3.53-2.02 6.99-3.54 10.37-.56-.32-19.8-11.02-33.94-4.67-14.36 6.43-21.27 26.54-21.27 26.54h-.01c-4.81-7.79-10.24-16.81-15.43-25.92 0 0 26.02-15.51 16.64-33.12-9.37-17.62-38.25-13.79-38.25-13.79-1.87-10.6-1.3-32.14 1.79-54.68 0 0 31.09-2.1 32.69-20.06 1.6-17.95-22.46-25.28-22.46-25.28 3.79-10.85 8.42-19.79 13.91-25 12.38-11.76 34.01-18.93 50.49-22.94v-.01c12.68-3.08 22.3-4.3 22.3-4.3h.01c1.16 5.04 3.13 10.74 5.81 16.95zm-37.22 38.13c9.11-4.54 13.79-13.69 10.44-20.43-3.34-6.74-13.44-8.53-22.56-3.99-9.11 4.55-13.78 13.69-10.44 20.43 3.35 6.74 13.45 8.53 22.56 3.99zm-20.1 78.13c8.74-5.6 12.32-15.62 8.01-22.38-4.32-6.75-14.9-7.68-23.63-2.08-8.74 5.6-12.32 15.62-8.01 22.37 4.32 6.76 14.9 7.69 23.63 2.09z" fill="#ffdbac"/><path d="m489.23 363.302c.54 10.44-1.08 18.63-5.43 23.56-6.66 7.54-18.9 11.5-34.61 12.42-1.51.09-3.06.15-4.63.18l2.71-35.03v-.01c15.24 1.6 29.49 1.38 41.95-1.12z" fill="#a35757"/><path d="m489.23 363.302h-.01c-12.46 2.5-26.71 2.72-41.95 1.12-1.32-.13-2.65-.28-3.99-.45l3.51-54.5v-.01c16.24.35 28.67-1.28 28.67-1.28 7.87 20.99 12.99 40.32 13.77 55.12z" fill="#933a3a"/><path d="m488.18 473.452s-25.6.46-28.93-14.22 16.78-20.14 16.78-20.14c1.13 2.24 2.19 4.49 3.19 6.75 4.07 9.14 7.07 18.34 8.96 27.61z" fill="#ad6a6a"/><path d="m437.85 230.032c14.66 25.12 28.13 52.85 37.61 78.15 0 0-12.43 1.63-28.67 1.28-4.67-.1-9.66-.36-14.75-.87 0 0-1.27-18.44-13.06-44.72 16.05-15.46 18.87-33.84 18.87-33.84z" fill="#a35757"/><path d="m449.19 399.282c5.79 6.85 11 13.73 15.62 20.64 0 0-17.82 14.8-34.83 7.75-17-7.05-21.08-31.22-21.08-31.22 12.89 2.17 24.97 3.23 35.66 3.01 1.57-.03 3.12-.09 4.63-.18z" fill="#9e4949"/><path d="m447.27 364.422v.01l-2.71 35.03c-10.69.22-22.77-.84-35.66-3.01-1.67-.28-3.35-.58-5.04-.9l8.19-37.45c10.66 2.63 21.14 4.63 31.23 5.87 1.34.17 2.67.32 3.99.45z" fill="#ad6a6a"/><path d="m446.79 309.462v.01l-3.51 54.5c-10.09-1.24-20.57-3.24-31.23-5.87-11.69-2.87-23.6-6.49-35.42-10.69l14.18-51.09c1.55.96 3.12 1.85 4.7 2.67 10.79 5.57 23.99 8.34 36.53 9.6 5.09.51 10.08.77 14.75.87z" fill="#9e4949"/><path d="m429.56 454.932c15.73 3.47 14.5 34.08 14.5 34.08-11.62-3.84-24.22-8.43-36.25-13.67 0 0 6.01-23.88 21.75-20.41z" fill="#ad6a6a"/><path d="m437.85 230.032s-2.82 18.38-18.87 33.84c-8.25-18.41-21.66-40.66-43.39-63.12 11.79-19.86-.03-48.7-.41-49.62 5.28 4.23 10.28 8.65 14.93 13.24 14.97 14.78 32.04 38.73 47.74 65.66z" fill="#ad6a6a"/><path d="m418.98 263.872c11.79 26.28 13.06 44.72 13.06 44.72-12.54-1.26-25.74-4.03-36.53-9.6-1.58-.82-3.15-1.71-4.7-2.67-5.37-3.33-10.57-7.49-15.61-12.2 0 0 27.72-4.8 43.78-20.25z" fill="#ad6a6a"/><path d="m412.05 358.102-8.19 37.45c-2.81-.52-5.65-1.1-8.51-1.73-11.87-2.59-24.21-6.03-36.61-10.19v-.01l7.26-40.14c3.53 1.36 7.07 2.67 10.63 3.93 11.82 4.2 23.73 7.82 35.42 10.69z" fill="#a35757"/><path d="m418.98 263.872c-16.06 15.45-43.78 20.25-43.78 20.25-12.53-11.66-24.14-26.63-35.37-40.38-3.17-3.88-6.31-7.66-9.43-11.24 0 0 33.21-11.56 45.19-31.75 21.73 22.46 35.14 44.71 43.39 63.12z" fill="#a35757"/><path d="m390.81 296.322-14.18 51.09c-3.56-1.26-7.1-2.57-10.63-3.93-15.22-5.85-30.16-12.58-44.17-19.78-6.21-3.18-12.23-6.47-18.02-9.82l35.59-69.79.43-.35c11.23 13.75 22.84 28.72 35.37 40.38 5.04 4.71 10.24 8.87 15.61 12.2z" fill="#933a3a"/><path d="m390.22 437.032c10.8 10.99-2.6 28.52-2.6 28.52-8.56-4.68-16.22-9.72-22.24-15.05-3.45-3.06-6.6-6.29-9.5-9.63 0 0 23.54-14.84 34.34-3.84z" fill="#ad6a6a"/><path d="m375.18 151.132c.38.92 12.2 29.76.41 49.62-4.43-4.58-9.21-9.18-14.37-13.75-16.27-14.42-32.64-25.92-48.08-35.04 11.85-20.02 2.07-36.6 1.68-37.25 21.31 9.78 42.44 22.04 60.36 36.42z" fill="#a35757"/><path d="m395.35 393.822s-8.49 24.99-24.62 20.44c-16.13-4.56-21.39-33.92-21.39-33.92 3.13 1.14 6.27 2.24 9.4 3.28v.01c12.4 4.16 24.74 7.6 36.61 10.19z" fill="#9e4949"/><path d="m366 343.482-7.26 40.14c-3.13-1.04-6.27-2.14-9.4-3.28-8.1-2.96-16.19-6.21-24.14-9.73-5.21-2.31-10.37-4.73-15.44-7.27l12.07-39.64c14.01 7.2 28.95 13.93 44.17 19.78z" fill="#ad6a6a"/><path d="m287.51 198.092c-7.34-4.41-14.91-8.86-22.19-13.62 0 0 35.74-12.08 47.82-32.51 15.44 9.12 31.81 20.62 48.08 35.04 5.16 4.57 9.94 9.17 14.37 13.75-11.98 20.19-45.19 31.75-45.19 31.75-4.76-5.46-9.47-10.46-14.18-14.64-8.01-7.1-18.12-13.41-28.71-19.77z" fill="#ad6a6a"/><path d="m339.83 243.742-.43.35-35.59 69.79c-7.69-4.43-14.96-8.98-21.69-13.56-8.7-5.92-16.49-11.88-23.07-17.72-4.19-3.71-8.37-7.68-12.53-11.88-6.17-6.21-12.26-12.91-18.19-19.97l59.18-52.66c10.59 6.36 20.7 12.67 28.71 19.77 4.71 4.18 9.42 9.18 14.18 14.64 3.12 3.58 6.26 7.36 9.43 11.24z" fill="#9e4949"/><path d="m303.81 313.882c5.79 3.35 11.81 6.64 18.02 9.82l-12.07 39.64c-11.45-5.72-22.46-11.98-32.64-18.7-4.99-3.29-9.99-6.86-14.97-10.65l19.97-33.67c6.73 4.58 14 9.13 21.69 13.56z" fill="#a35757"/><path d="m314.82 114.712c.39.65 10.17 17.23-1.68 37.25-47.67-28.18-86.53-33.87-86.53-33.87 4.87-15.97 17.15-27.09 17.15-27.09 20.69 4.1 46.01 12.19 71.06 23.71z" fill="#ad6a6a"/><path d="m287.51 198.092-59.18 52.66c-4.05-4.82-8.01-9.8-11.85-14.91-8.23-10.89-15.93-22.35-22.8-34-5.48-9.28-10.43-18.69-14.68-28l51.12-23.09c7.92 13.89 20.98 24.41 35.2 33.72 7.28 4.76 14.85 9.21 22.19 13.62z" fill="#933a3a"/><path d="m313.14 151.962c-12.08 20.43-47.82 32.51-47.82 32.51-14.22-9.31-27.28-19.83-35.2-33.72-6.69-11.73-6.44-23.07-3.51-32.66 0 0 38.86 5.69 86.53 33.87z" fill="#a35757"/><path d="m282.12 300.322-19.97 33.67c-12.53-9.55-24.97-20.57-36.89-32.41l21.26-30.86c4.16 4.2 8.34 8.17 12.53 11.88 6.58 5.84 14.37 11.8 23.07 17.72z" fill="#ad6a6a"/><path d="m246.52 270.722-21.26 30.86c-11.95-11.84-23.39-24.51-33.89-37.3l25.1-28.43.01-.01c3.84 5.11 7.8 10.09 11.85 14.91 5.93 7.06 12.02 13.76 18.19 19.97z" fill="#a35757"/><path d="m234.79 357.362s5.45 23.52-1.82 31.76c0 0-24.75-12.78-31.04-26.57s7.01-27.82 7.01-27.82c8.56 7.92 17.27 15.55 25.85 22.63z" fill="#a35757"/><path d="m230.12 150.752-51.12 23.09c-2.06-4.5-3.95-8.97-5.66-13.4-7.28-18.81-11.33-36.86-10.76-52.46 16.08-12.34 36.45-20.2 55.12-20.05 7.26.06 16.13 1.1 26.06 3.07 0 0-12.28 11.12-17.15 27.09-2.93 9.59-3.18 20.93 3.51 32.66z" fill="#9e4949"/><path d="m216.48 235.842-.01.01-25.1 28.43c-8.95-10.89-17.21-21.87-24.53-32.53-1.22-1.78-2.41-3.54-3.58-5.29l30.42-24.62c6.87 11.65 14.57 23.11 22.8 34z" fill="#ad6a6a"/><path d="m193.68 201.842-30.42 24.62c-9.93-14.96-17.9-29.13-23.14-41.34l33.21-24.68h.01c1.71 4.43 3.6 8.9 5.66 13.4 4.25 9.31 9.2 18.72 14.68 28z" fill="#a35757"/><path d="m189.63 316.122s-1.67 19.61-9.96 26.09c-8.13 6.37-20 2.37-20.42 2.23-.01-.01-.01-.01-.01-.01-.84-1.92-1.62-3.81-2.31-5.67-8.6-23.07.74-56.43.94-57.13 9.34 11.13 20.19 22.89 31.76 34.49z" fill="#a35757"/><g fill="#ad6a6a"><path d="m173.34 160.442h-.01l-33.21 24.68c-2.68-6.21-4.65-11.91-5.81-16.95-.85-3.62-1.28-6.89-1.26-9.77.12-19.03 12.39-37.27 29.53-50.42-.57 15.6 3.48 33.65 10.76 52.46z"/><path d="m144.76 243.502c-3.14 2.36-6.25 5.12-9.08 8.31-1.42 1.59-2.77 3.29-4.01 5.1-3.69 5.39-4.59 14.16-4.23 24.61-15.71-6.94-27.17-18.83-20.61-33.85 6.65-15.26 26.5-16.49 37.93-4.17z"/><path d="m136.6 68.562c-.54.09-18.52 2.86-26.21-10.62-7.81-13.69 6.55-28.1 6.55-28.1 9.51 12.33 15.47 26.88 19.66 38.72z"/><path d="m129.58 305.622c1.57 13.44 3.39 27.49 3.32 39.73 0 0-28.56 1.51-34.75-9.91-6.19-11.43 2.51-29.37 11.19-33.42 8.69-4.05 20.24 3.6 20.24 3.6z"/><path d="m127.84 371.402c-7.81 17.35-23.71 32.26-32.99 39.96-3.75 3.11-9.37 2.24-12.01-1.86-2.66-4.14-6.22-9.77-10.22-16.23h.01s6.91-20.11 21.27-26.54c14.14-6.35 33.38 4.35 33.94 4.67z"/><path d="m113.34 202.822c3.35 6.74-1.33 15.89-10.44 20.43s-19.21 2.75-22.56-3.99c-3.34-6.74 1.33-15.88 10.44-20.43 9.12-4.54 19.22-2.75 22.56 3.99z"/><path d="m90.81 279.002c4.31 6.76.73 16.78-8.01 22.38-8.73 5.6-19.31 4.67-23.63-2.09-4.31-6.75-.73-16.77 8.01-22.37 8.73-5.6 19.31-4.67 23.63 2.08z"/><path d="m73.83 334.232c9.38 17.61-16.64 33.12-16.64 33.12-10.38-18.21-19.84-36.83-21.61-46.91 0 0 28.88-3.83 38.25 13.79z"/><path d="m47.6 220.422s24.06 7.33 22.46 25.28c-1.6 17.96-32.69 20.06-32.69 20.06 2.16-15.75 5.56-31.99 10.23-45.34z"/><path d="m86.42 7.142s-5.64 18.87-20.67 18.03c-15.02-.84-18.06-19.47-18.06-19.47v-.01c12.46-2.34 26.1-2.74 38.73 1.45z"/><path d="m24.23 12.462c.31.55 10.22 18.33 4.72 24.56-5.59 6.33-24.57 3.05-24.57 3.05-.29-3.62-.38-6.88-.38-9.62 0-5.44 3.1-10.37 7.99-12.73 3.26-1.57 7.42-3.43 12.24-5.26z"/></g><path d="m54.43 51.212c14.396 4.978 23.955 14.14 29.85 26.47-7.29 8.26-19.89 9.03-28.13 1.72-8.25-7.31-9.02-19.93-1.72-28.19z" fill="#d6eae8"/><path d="m82.56 49.492c8.24 7.31 9.01 19.93 1.72 28.19l-29.85-26.47c7.29-8.25 19.89-9.03 28.13-1.72z" fill="#543927"/><path d="m77.36 383.292c-3.17 5.45-4.73 9.98-4.73 9.98h-.01c-2.3-3.73-4.74-7.73-7.23-11.89 4.27 1.22 8.25 1.83 11.97 1.91z" fill="#eac8a0"/><path d="m127.84 371.402c-7.81 17.35-23.71 32.26-32.99 39.96-3.75 3.11-9.37 2.24-12.01-1.86-2.66-4.14-6.22-9.77-10.22-16.23h.01s1.56-4.53 4.73-9.98c14.48.35 24.94-7.32 32.48-18.1 9.52 1.48 17.64 6 18 6.21z" fill="#a35757"/><path d="m129.58 305.622c-.75 7.53-3.83 23.43-9.59 39.31 7.01.73 12.91.42 12.91.42.07-12.24-1.75-26.29-3.32-39.73z" fill="#a35757"/><path d="m132.9 345.352c-.02 5.7-.46 11-1.52 15.68-.8 3.53-2.02 6.99-3.54 10.37-.36-.21-8.48-4.73-18-6.21 4.24-6.06 7.56-13.1 10.15-20.26 7.01.73 12.91.42 12.91.42z" fill="#eac8a0"/><path d="m483.8 386.862c3.07 5.25 5.78 10.56 8.06 15.97-7.87 5.67-18.19 9.78-30.41 12.22-3.74-5.27-7.83-10.53-12.26-15.77 15.71-.92 27.95-4.88 34.61-12.42z" fill="#e0b377"/><path d="m449.19 399.282c4.43 5.24 8.52 10.5 12.26 15.77-12.8 2.57-27.68 3.31-44 2.1-6.64-9.4-8.55-20.7-8.55-20.7 12.89 2.17 24.97 3.23 35.66 3.01 1.57-.03 3.12-.09 4.63-.18z" fill="#933a3a"/><path d="m408.9 396.452s1.91 11.3 8.55 20.7c-10.96-.8-22.56-2.48-34.62-5.07 8.25-5.68 12.52-18.26 12.52-18.26 2.86.63 5.7 1.21 8.51 1.73 1.69.32 3.37.62 5.04.9z" fill="#edca9f"/><path d="m358.74 383.622v.01c12.4 4.16 24.74 7.6 36.61 10.19 0 0-4.27 12.58-12.52 18.26-7.48-1.61-15.12-3.56-22.9-5.88-7.79-10.22-10.59-25.86-10.59-25.86 3.13 1.14 6.27 2.24 9.4 3.28z" fill="#933a3a"/><path d="m349.34 380.342s2.8 15.64 10.59 25.86c-9.39-2.79-18.97-6.11-28.66-9.96-4.9-14.75-6.07-25.63-6.07-25.63 7.95 3.52 16.04 6.77 24.14 9.73z" fill="#edca9f"/><path d="m309.76 363.342c5.07 2.54 10.23 4.96 15.44 7.27 0 0 1.17 10.88 6.07 25.63-31.23-12.43-63.58-30.44-94.3-54.53-47.84-37.51-73.88-72.59-87.88-101.25 9.36-6.09 17.75-8.71 17.75-8.71 7.32 10.66 15.58 21.64 24.53 32.53 10.5 12.79 21.94 25.46 33.89 37.3 11.92 11.84 24.36 22.86 36.89 32.41 4.98 3.79 9.98 7.36 14.97 10.65 10.18 6.72 21.19 12.98 32.64 18.7z" fill="#e0b377"/><path d="m140.12 185.122c5.24 12.21 13.21 26.38 23.14 41.34 1.17 1.75 2.36 3.51 3.58 5.29 0 0-8.39 2.62-17.75 8.71-21.28-43.55-14.79-72.29-14.79-72.29h.01c1.16 5.04 3.13 10.74 5.81 16.95z" fill="#edca9f"/></g><g fill="#3a322b"><path d="m503.982 436.287c-.876-16.174-5.93-32.271-15.413-49.129 14.658-22.612-8.864-81.294-19.991-106.14-21.499-48.007-51.902-96.027-75.656-119.492-48.157-47.571-134.492-77.253-175.189-77.592-.194-.001-.388-.002-.583-.002-18.174 0-37.974 7.04-54.462 18.967-3.624-3.069-10.581-9.307-14.775-15.286-1.189-1.696-2.902-6.781-4.716-12.165-6.892-20.463-18.425-54.712-48.446-69.237-30.629-14.82-69.291.594-84.492 7.91-6.229 2.997-10.255 9.405-10.259 16.325-.01 15.521 2.847 44.383 22.082 63.285 14.963 14.705 31.081 18.597 45.302 22.03 10.873 2.625 20.264 4.893 27.604 11.401 6.095 5.404 10.684 20.71 12.726 42.243-16.427 4.258-36.746 11.51-48.963 23.111-23.256 22.084-31.358 104.469-27.114 128.616 3.488 19.854 34.618 69.92 47.84 90.525 1.875 2.921 4.915 4.901 8.342 5.432.616.096 1.235.143 1.851.143 2.806 0 5.55-.977 7.739-2.793 11.944-9.911 32.747-29.915 37.873-52.523 3.27-14.424.962-33.955-1.27-52.843-2.402-20.334-4.887-41.36.962-49.899.121-.176.248-.344.371-.518 4.96 7.432 11.109 15.528 18.121 23.969-1.992 7.939-8.161 36.404-.283 57.536 9.077 24.348 30.671 53.233 41.981 59.802 3.813 2.215 8.377 3.186 13.11 3.186 10.521 0 21.878-4.796 27.693-11.381 5.097-5.772 5.226-16.59 4.406-24.786 12.038 9.51 23.606 17.705 33.902 23.807 23.427 13.882 45.848 21.837 61.104 26.163 6.172 12.467 14.939 25.546 27.345 36.544 28.187 24.989 90.732 43.325 116.315 50.048 1.054.277 2.116.413 3.169.413 2.775 0 5.475-.948 7.708-2.759 3.063-2.483 4.709-6.159 4.517-10.086-.674-13.771-3.796-27.626-9.328-41.49 3.029-.208 6.074-.553 9.11-1.072 5.892-1.009 10.092-6.281 9.767-12.263zm-189.408-75.018 9.708-31.871c12.001 6.014 24.541 11.633 37.2 16.615l-5.845 32.3c-13.811-4.81-27.691-10.526-41.063-17.044zm-155.876-244.8c.78 13.242 4.276 27.697 9.794 42.58l-26.606 19.77c-3.177-8.188-4.872-15.144-4.837-20.391.087-13.442 6.983-27.592 19.418-39.844.727-.718 1.475-1.42 2.231-2.115zm12.819 50.298c4.674 11.33 10.426 22.824 16.962 34.144l-24.279 19.646c-7.981-12.342-14.479-23.969-19.109-34.154zm202.911 27.145c-3.335-3.302-6.844-6.607-10.558-9.9-15.36-13.617-30.75-24.643-45.379-33.561 5.426-11.096 5.073-21 3.506-27.895 18.737 9.27 35.688 19.83 49.85 31.053 1.699 4.494 8.519 24.434 2.581 40.303zm52.957 110.097c-10.538-1.407-21.19-4.004-30.038-8.571-4.672-2.411-9.211-5.536-13.645-9.169 8.592-2.311 22.604-7.1 33.682-15.754 6.306 15.209 8.944 27.199 10.001 33.494zm13.475 91.461c-9.724-.081-20.6-1.168-32.19-3.167l6.413-29.359c9.705 2.252 19.037 3.931 27.905 5.011zm6.654-35.021 3.022-46.905c.23.001.469.005.696.005 9.584 0 17.405-.628 21.563-1.047 6.862 18.777 11.001 34.977 12.198 47.498-10.939 1.773-23.553 1.904-37.479.449zm-7.954-.98c-17.713-2.518-37.302-7.423-58.074-14.594l11.804-42.535c.129.068.257.14.387.207 14.585 7.528 33.079 10.162 48.854 10.816zm-70.266-19.008c-20.915-7.936-41.635-17.703-60.179-28.174l31.328-61.444c.393.485.785.969 1.18 1.455 13.92 17.174 28.254 34.851 44.546 45.784l-12.24 44.106c-1.54-.563-3.084-1.138-4.635-1.727zm-107.59-60.852c-9.394-8.328-18.775-17.975-27.793-28.471l54.062-48.1c9.564 5.793 18.448 11.487 25.594 17.821 7.018 6.222 14.061 14.346 21.351 23.208l-32.738 64.21c-15.835-9.374-29.782-19.187-40.476-28.668zm114.722.186c-9.918-9.502-19.347-21.133-28.588-32.534-3.642-4.493-7.209-8.892-10.743-13.087 9.301-3.905 28.314-13.14 38.988-27.057 18.329 19.767 30.239 39.256 37.955 55.808-12.705 10.767-31.595 15.561-37.612 16.87zm-17.862-89.796c4.22 3.741 8.179 7.5 11.905 11.26-10.165 14.181-31.612 23.62-38.898 26.517-4.229-4.757-8.439-9.126-12.697-12.902-9.306-8.25-20.969-15.23-33.316-22.62-3.804-2.277-7.633-4.568-11.413-6.912 10.691-4.505 30.01-14.089 40.184-27.951 14.311 8.682 29.335 19.399 44.235 32.608zm-92.715-9.975c-13.17-8.771-25.036-18.593-32.257-31.249-5.255-9.212-5.796-18.172-4.111-26.089 10.074 2.044 41.08 9.578 77.924 30.625-11.102 14.514-34.851 24.194-41.556 26.713zm-37.306-24.167c11.986 18.635 32.38 30.975 52.245 42.865l-52.019 46.282c-12.365-15.078-23.889-31.646-33.58-48.516-4.023-7.003-7.643-13.908-10.856-20.666zm-35.936 52.005c5.789 9.503 12.089 18.83 18.722 27.776l-19.84 22.467c-3.358-4.175-6.664-8.412-9.899-12.709-4.613-6.128-8.94-12.196-12.956-18.136zm23.651 34.279c8.065 10.4 16.535 20.188 25.102 29.023l-16.683 24.209c-9.56-9.675-18.986-20.075-28.06-30.992zm30.844 34.792c3.1 3.027 6.203 5.921 9.296 8.663 5.909 5.239 12.782 10.571 20.384 15.876l-15.76 26.588c-10.121-7.948-20.4-17.02-30.578-26.953zm36.313 29.038c10.253 6.763 21.614 13.421 33.634 19.72l-9.726 31.928c-9.747-5.036-19.164-10.484-28.001-16.313-3.921-2.587-7.894-5.38-11.9-8.356zm106.404 90.696c-2.876 6.022-9.178 16.229-18.003 13.741-8.598-2.43-14.106-14.807-16.821-23.829 11.612 3.988 23.317 7.391 34.824 10.088zm-26.519-15.768 5.788-31.985c13.176 4.905 25.972 8.966 38.22 12.131l-6.506 29.785c-12.036-2.432-24.69-5.772-37.502-9.931zm78.143 22.565c2.027 0 3.987-.056 5.911-.141 4.333 5.208 8.316 10.423 11.937 15.639-5.313 3.458-16.924 9.51-27.778 5.012-10.05-4.167-15.06-15.675-17.241-22.631 9.814 1.415 18.912 2.121 27.171 2.121zm7.454-8.164 2.052-26.53c5.129.429 10.098.661 14.863.661 6.94 0 13.469-.467 19.541-1.393-.113 7.326-1.603 12.839-4.55 16.176-5.93 6.715-17.213 10.27-31.906 11.086zm20.956-90.577c-6.885.582-19.961 1.311-34.215.163-.827-5.943-3.305-19.163-10.375-36.493-.481-1.179-.995-2.397-1.532-3.639 8.279-8.633 12.879-17.825 15.361-24.496 7.935 14.153 15.492 29.082 22.185 44.029 3.163 7.062 6.017 13.882 8.576 20.436zm-36.23-73.99c-.873 3.807-4.126 15.243-13.518 26.128-7.9-16.261-20.331-36.3-39.638-56.763 5.98-12.291 4.738-26.722 2.487-37.02 1.492 1.373 2.943 2.753 4.346 4.139 14.13 13.957 30.727 36.965 46.323 63.516zm-121.697-112.956c1.626 3.303 6.146 14.682-.342 28.581-37.051-21.302-68.172-29.052-79.699-31.379 3.911-9.548 10.296-16.728 13.147-19.633 16.472 3.431 35.421 9.291 54.031 16.883 4.357 1.779 8.647 3.631 12.863 5.548zm-94.757-25.846c.166 0 .332.001.498.002 5.326.044 11.462.637 18.164 1.71-2.791 3.334-6.233 8.017-9.138 13.702-7.283 14.251-7.943 28.5-2.027 41.484l-43.659 19.717c-9.627-21.976-14.655-42.114-14.473-58.524 15.285-11.239 34.046-18.091 50.635-18.091zm-100.392-55.53c6.264 9.167 10.761 19.296 14.211 28.438-5.16-.184-13.041-1.728-17.125-8.881-4.107-7.198-.207-15.053 2.914-19.557zm-35.744-26.639c-2.264 4.643-7.087 11.863-15.06 11.42-7.967-.446-11.705-7.602-13.298-12.241 9.286-1.356 19.065-1.463 28.358.821zm-67.305 11.568c2.33-1.121 5.257-2.448 8.63-3.823 3.331 6.907 5.433 14.786 3.594 16.869-2.402 2.72-11.1 2.917-17.799 2.181-.111-2.208-.154-4.261-.153-6.107.002-3.926 2.197-7.421 5.728-9.12zm86.567 99.846c-8.832-7.831-19.616-10.435-31.034-13.191-13.857-3.346-28.187-6.806-41.571-19.96-12.393-12.177-17.159-29.362-18.848-43.344 1.74.16 3.754.282 5.877.282 6.278 0 13.489-1.06 17.228-5.292 5.528-6.26 1.096-18.311-2.075-25.003 4.538-1.578 9.555-3.077 14.851-4.255 2.424 7.757 8.689 18.08 20.803 18.758.42.023.834.035 1.241.035 12.538 0 19.198-10.861 21.944-16.94.859.357 1.711.738 2.555 1.146 8.206 3.97 14.914 9.72 20.469 16.333-4.22 5.349-11.919 17.742-4.82 30.179 6.388 11.191 18.361 12.938 25.213 12.938.625 0 1.197-.017 1.728-.04.622 1.805 1.208 3.542 1.759 5.178 2.261 6.713 3.895 11.564 5.748 14.206 4.274 6.092 10.779 12.158 14.898 15.728-1.864 1.585-3.672 3.236-5.412 4.951-13.958 13.753-21.701 29.909-21.803 45.491-.013 1.982.175 4.143.536 6.449-3.262.521-8.181 1.391-14.015 2.691-1.733-17.391-5.8-37.942-15.272-46.34zm-36.034 77.142c17.482-16.602 55.429-23.79 67.076-25.658 4.29 15.137 14.481 35.006 29.333 57.149-3.898 1.635-9.622 4.394-15.569 8.496-6.577-5.595-15.267-8.171-23.431-6.785-8.348 1.418-15.094 6.723-18.51 14.555-6.416 14.708 1.207 28.804 20.399 38.051.235 4.675.683 9.608 1.227 14.69-4.803-1.806-11.325-3.128-17.133-.422-5.703 2.658-11.146 9.697-13.865 17.933-2.575 7.798-2.275 15.262.845 21.016 5.802 10.7 25.22 12.057 34.174 12.095-.177 3.859-.592 7.462-1.329 10.709-.44 1.941-1.017 3.865-1.708 5.767-6.957-3.118-21.531-8.209-33.511-2.837-10.02 4.491-16.634 14.586-20.204 21.577-3.07-5.059-6.313-10.504-9.524-16.063 7.364-5.312 23.711-19.561 14.833-36.241-8.418-15.818-29.481-16.612-38.331-16.197-1.013-9.913-.619-27.173 1.887-46.751 8.689-1.166 31.567-5.884 33.124-23.342 1.446-16.221-13.831-24.782-21.321-27.98 3.493-9.064 7.407-15.839 11.538-19.762zm61.806 111.694c1.264 10.698 2.545 21.601 2.793 31.436-10.137-.032-23.998-2.022-27.194-7.917-2.776-5.119-1.368-11.403-.281-14.694 1.997-6.05 5.965-11.474 9.647-13.19 4.62-2.153 11.269.485 14.804 2.408.077.651.154 1.303.231 1.957zm-67.532 51.57c-7.923-14.112-15.032-28.124-17.917-37.465 7.859-.193 23.768.877 29.683 11.993 5.642 10.597-5.753 20.97-11.766 25.472zm-8.466-135.915c5.939 2.636 16.959 9.004 16.007 19.683-.922 10.354-15.939 14.343-23.98 15.742.191-1.234.386-2.471.594-3.716 1.995-11.985 4.502-22.681 7.379-31.709zm42.231 182.617c-.922.764-2.078 1.083-3.257.901-1.18-.183-2.187-.839-2.834-1.847-2.158-3.363-5.375-8.427-9.126-14.482 1.952-4.725 8.159-17.865 18.449-22.478 9.094-4.076 21.204.268 26.99 2.86-7.804 14.945-21.52 27.824-30.222 35.046zm36.074-153.63c-3.386 4.943-4.736 12.008-4.957 20.35-8.253-4.753-18.298-13.415-12.926-25.73 2.352-5.391 6.797-8.895 12.518-9.867 5.321-.901 10.986.588 15.573 3.939-3.683 3.197-7.219 6.944-10.208 11.308zm31.598 35.619c7.795 8.963 16.408 18.191 25.468 27.325-.754 5.935-3.164 17.5-8.232 21.466-4.887 3.826-11.924 2.767-15.045 2.03-.523-1.25-1.023-2.495-1.483-3.728-5.735-15.382-2.902-36.115-.708-47.093zm39.211 102.773c-7.395-4.295-22.896-23.507-32.991-43.301.607.036 1.233.058 1.876.058 4.445 0 9.646-.974 14.072-4.438 5.9-4.618 8.841-13.989 10.259-20.855 3.647 3.569 7.346 7.11 11.078 10.598-3.987 5.426-10.651 17.113-5.185 29.104 4.987 10.941 19.813 20.877 27.74 25.592-7.528 4.965-19.788 7.343-26.849 3.242zm32.314-9.303c-7.964-4.599-21.895-14.009-25.926-22.85-3.525-7.733.818-15.961 3.839-20.308 7.236 6.601 14.542 12.968 21.755 18.944 1.502 7.202 2.528 18.202.332 24.214zm46.858.163c-43.741-25.919-110.806-90.213-137.626-131.62 8.724-8.747 19.589-13.734 24.573-15.711 3.126 4.472 6.424 9.021 9.897 13.633 30.414 40.398 66.76 76.036 99.719 97.776 13.982 9.223 29.858 17.812 46.61 25.352.771 5.214 3.19 18.485 9.506 33.967-14.297-4.489-33.129-11.812-52.679-23.397zm83.876 58c7.412-3.707 19.456-7.859 25.135-2.076 6.02 6.127 1.718 15.683-1.063 20.424-6.984-4.015-13.228-8.275-18.27-12.745-2.037-1.805-3.969-3.678-5.802-5.603zm50.49 31.214c2.042-5.559 7.173-16.223 15.973-14.283 8.278 1.824 10.803 15.472 11.303 24.602-8.917-3.049-18.222-6.502-27.276-10.319zm72.159 21.864c-1.079.874-2.468 1.173-3.806.822-8.046-2.115-19.831-5.403-33.001-9.675-.151-8.461-2.003-31.656-17.657-35.106-14.655-3.231-22.155 11.232-25.045 18.888-4.128-1.867-8.162-3.808-12.035-5.82 3.796-6.54 9.48-19.951-.264-29.868-10.425-10.612-28.954-2.402-36.266 1.508-17.208-21.249-24.032-46.547-26.45-58.556 5.121 2.154 10.303 4.206 15.523 6.145 1.682 7.4 8.1 30.36 23.76 34.786 1.792.506 3.497.736 5.121.736 12.594 0 20.178-13.863 23.058-20.415 2.621.543 5.194 1.035 7.733 1.489 1.715 7.008 7.523 25.073 22.896 31.447 3.824 1.585 7.65 2.221 11.332 2.221 10.12 0 19.134-4.812 23.94-7.953 2.386 3.754 4.587 7.508 6.602 11.26-8.07 3.522-17.717 11.136-14.976 23.225 3.212 14.163 21.702 16.772 29.486 17.24.842 4.728 1.382 9.444 1.612 14.144.068 1.353-.503 2.622-1.563 3.482zm-1.811-25.835c-6.77-.697-18.154-3.013-19.92-10.801-1.786-7.874 6.161-12.373 10.804-14.29 3.975 8.384 7.016 16.754 9.116 25.091zm-1.349-27.36c-6.095-13.123-14.339-26.241-24.717-39.292 10.907-1.456 19.635-4.565 25.773-9.28 8.106 14.983 12.447 29.259 13.219 43.502.104 1.926-1.24 3.621-3.128 3.944-3.725.638-7.462 1.005-11.147 1.126z"/><path d="m85.213 46.501c-4.786-4.244-10.928-6.363-17.317-5.977-6.383.39-12.23 3.247-16.467 8.044-8.74 9.897-7.813 25.072 2.064 33.829 4.413 3.913 9.984 6.022 15.828 6.022.494 0 .991-.015 1.489-.045 6.383-.39 12.23-3.247 16.467-8.044 8.741-9.896 7.814-25.072-2.064-33.829zm-16.829 2.008c.331-.02.661-.03.99-.03 3.887 0 7.595 1.404 10.532 4.008 5.546 4.917 6.839 12.864 3.631 19.192l-23.08-20.462c2.332-1.582 5.042-2.531 7.927-2.708zm1.938 31.88c-4.242.257-8.336-1.154-11.522-3.978-5.546-4.917-6.839-12.864-3.631-19.192l23.081 20.463c-2.333 1.581-5.043 2.531-7.928 2.707z"/><path d="m83.604 269.74c-5.985-1.313-12.76.076-18.586 3.814-10.575 6.783-14.71 19.297-9.216 27.896 2.296 3.593 6.052 6.118 10.577 7.111 1.478.324 3.003.484 4.552.484 4.721 0 9.646-1.483 14.033-4.297 10.576-6.783 14.711-19.297 9.217-27.896-2.296-3.594-6.053-6.119-10.577-7.112zm-2.958 28.274c-3.992 2.561-8.684 3.58-12.553 2.733-1.723-.378-4.083-1.31-5.549-3.604-3.07-4.805.04-12.524 6.792-16.855 3.067-1.967 6.548-3.026 9.751-3.026.966 0 1.906.096 2.802.293 1.723.378 4.084 1.31 5.55 3.604 3.07 4.805-.041 12.524-6.793 16.855z"/><path d="m85.89 228.697c2.134.717 4.426 1.07 6.786 1.07 3.957 0 8.104-.994 12.009-2.94 11.069-5.515 16.561-17.082 12.241-25.785-1.763-3.552-5.006-6.271-9.13-7.655-5.711-1.919-12.563-1.237-18.795 1.87-11.069 5.515-16.561 17.083-12.241 25.785 1.762 3.552 5.006 6.271 9.13 7.655zm6.679-26.28c2.769-1.38 5.729-2.093 8.465-2.093 1.495 0 2.923.213 4.216.647 1.482.498 3.469 1.531 4.51 3.628 2.321 4.677-1.637 11.578-8.644 15.068-4.281 2.134-9.021 2.675-12.681 1.446-1.482-.498-3.469-1.531-4.51-3.628-2.32-4.677 1.638-11.577 8.644-15.068z"/></g></g></svg>