<?xml version="1.0" encoding="UTF-8"?>
<svg xmlns="http://www.w3.org/2000/svg" xmlns:xlink="http://www.w3.org/1999/xlink" version="1.1" id="Capa_1" x="0px" y="0px" viewBox="0 0 512 512" style="enable-background:new 0 0 512 512;" xml:space="preserve" width="512" height="512">
<g>
	<g>
		<path style="fill:#DBDBDB;" d="M94.318,111.4L94.318,111.4c-6.522,24.724-16.649,48.353-30.054,70.127l-15.974,25.948&#10;&#9;&#9;&#9;c-0.693,1.126-0.265,2.605,0.924,3.186l26.312,12.86c24.746,12.094,53.681,12.126,78.453,0.086l26.64-12.948&#10;&#9;&#9;&#9;c1.191-0.579,1.623-2.06,0.928-3.188l-15.992-25.977c-13.391-21.752-23.511-45.355-30.034-70.051l-0.013-0.048&#10;&#9;&#9;&#9;c-2.478-9.381-10.982-15.902-20.685-15.861h0C105.186,95.574,96.776,102.081,94.318,111.4z"/>
		<path style="fill:#FC746D;" d="M301.755,207.122l-27.091,8.672L112.138,53.268c-6.044-6.044-6.188-15.755-0.43-21.973&#10;&#9;&#9;&#9;c0.14-0.151,2.805,0.187,2.805,0.187c6.191-6.191,13.927-4.215,20.118,1.976L301.755,207.122z"/>
		<path style="fill:#ED5F5F;" d="M308.94,204.827l-17.7,5.67l-179.53-179.2c0.14-0.15,0.28-0.3,0.43-0.45&#10;&#9;&#9;&#9;c3.1-3.09,7.15-4.64,11.21-4.64s8.11,1.55,11.21,4.64L308.94,204.827z"/>
		<path style="fill:#F8F7F7;" d="M190.866,280.221l24.406-76.413c1.324-4.144,5.175-6.957,9.526-6.957H390.63l12.627,2.298&#10;&#9;&#9;&#9;c12.852,0,24.276,8.186,28.408,20.356l44.003,100.494l-301.212,13.953L190.866,280.221z"/>
		<path style="fill:#E8E8E8;" d="M475.67,319.997l-26.84,1.24l-36.06-104.03c-4.13-12.17-15.55-20.36-28.4-20.36h28&#10;&#9;&#9;&#9;c12.85,0,24.27,8.19,28.4,20.36L475.67,319.997z"/>
		<path style="fill:#796E79;" d="M58.065,424.497L47.9,411.721c-4.606-4.042-14.936-10.159-14.936-10.159&#10;&#9;&#9;&#9;c-14.79-18.126-23.519-40.64-24.624-64.325l-0.695-14.894c-0.08-1.71,1.285-3.14,2.997-3.14H291.34&#10;&#9;&#9;&#9;c4.068,0,7.97-1.616,10.847-4.493l29.995-29.995c2.877-2.877,6.779-4.493,10.847-4.493H478.5l15.398,3.145&#10;&#9;&#9;&#9;c2.468,0,4.347,2.213,3.947,4.648l-1.852,11.27c-7.864,47.868-37.93,88.5-77.567,116.466l-21.173,29.829l-291.957-7.104&#10;&#9;&#9;&#9;L58.065,424.497z"/>
		<path style="fill:#665E67;" d="M503.74,284.867l-1.86,11.27c-5.82,35.45-22,68.07-46.11,93.96c0-0.04-0.12-0.03-0.34,0.03&#10;&#9;&#9;&#9;c0.09,0.01,0.18,0.03,0.27,0.05c-8.42,9.04-17.81,17.27-28.07,24.5l-30.38,30.9l-291.95-7.1l-47.23-13.98l-12.46-9.82&#10;&#9;&#9;&#9;c-4.61-4.04-8.835-8.426-12.645-13.116c8.24-6.51,19.385-12.764,36.665-12.764c22.83,0,34.94,10.91,43.78,18.88&#10;&#9;&#9;&#9;c6.95,6.26,10.11,9.12,18.35,9.12c8.23,0,11.4-2.86,18.34-9.12c8.84-7.97,20.95-18.88,43.78-18.88s34.95,10.91,43.79,18.88&#10;&#9;&#9;&#9;c6.94,6.26,10.11,9.12,18.34,9.12s11.4-2.86,18.34-9.12c8.84-7.97,20.95-18.88,43.78-18.88s34.94,10.91,43.78,18.88&#10;&#9;&#9;&#9;c6.94,6.26,10.11,9.12,18.34,9.12c8.24,0,11.4-2.86,18.34-9.12c4.124-3.716,8.956-8.068,15.252-11.655&#10;&#9;&#9;&#9;c17.048-9.713,31.578-23.403,41.199-40.504c10.265-18.247,17.383-38.312,20.839-59.381l2.62-15.92h21.29&#10;&#9;&#9;&#9;C502.26,280.218,504.14,282.438,503.74,284.867z"/>
		<g>
			<circle style="fill:#F8F7F7;" cx="318.453" cy="364.824" r="14.965"/>
			<circle style="fill:#F8F7F7;" cx="244.539" cy="364.824" r="14.965"/>
			<circle style="fill:#F8F7F7;" cx="170.625" cy="364.824" r="14.965"/>
			<circle style="fill:#F8F7F7;" cx="96.712" cy="364.824" r="14.965"/>
		</g>
		<path style="fill:#7BB1FF;" d="M10.372,478.96c0,1.743,1.484,3.112,3.223,2.996c27.881-1.866,26.083-29.163,56.034-29.163&#10;&#9;&#9;&#9;c31.064,0,31.064,28,62.129,28c31.063,0,31.063-28,62.126-28c31.062,0,31.062,28,62.124,28c31.061,0,31.061-28,62.121-28&#10;&#9;&#9;&#9;c31.062,0,31.062,28,62.124,28c31.062,0,31.062-28,62.125-28c29.948,0,24.608,24.615,52.486,26.481&#10;&#9;&#9;&#9;c1.739,0.116,3.223-1.253,3.223-2.996l6.413-15.48v-22.048c0-1.595-1.23-2.944-2.823-3.037&#10;&#9;&#9;&#9;c-28.268-1.642-29.209-27.92-59.299-27.92c-31.062,0-31.062,28-62.125,28c-31.062,0-31.062-28-62.124-28&#10;&#9;&#9;&#9;c-31.061,0-31.061,28-62.121,28c-31.062,0-31.062-28-62.124-28c-31.063,0-31.063,28-62.126,28c-31.065,0-31.065-28-62.129-28&#10;&#9;&#9;&#9;c-30.094,0-31.034,26.277-59.306,27.92c-1.593,0.093-2.823,1.441-2.823,3.037v22.048L10.372,478.96z"/>
		<path style="fill:#62A5F4;" d="M504.5,460.797v21.89c0,1.75-1.48,3.12-3.22,3c-27.88-1.87-28.95-27.89-58.9-27.89&#10;&#9;&#9;&#9;c-31.06,0-31.06,28-62.13,28c-31.06,0-31.06-28-62.12-28s-31.06,28-62.12,28s-31.06-28-62.13-28c-31.06,0-31.06,28-62.12,28&#10;&#9;&#9;&#9;c-31.07,0-31.07-28-62.13-28c-29.95,0-31.03,26.02-58.91,27.89c-1.74,0.12-3.22-1.25-3.22-3v-21.89c31.06,0,31.06-28,62.13-28&#10;&#9;&#9;&#9;c31.06,0,31.06,28,62.13,28c31.06,0,31.06-28,62.12-28c31.07,0,31.07,28,62.13,28s31.06-28,62.12-28s31.06,28,62.12,28&#10;&#9;&#9;&#9;c31.07,0,31.07-28,62.13-28S473.44,460.797,504.5,460.797z"/>
	</g>
	<g>
		<path style="fill:none;stroke:#000000;stroke-width:15;stroke-linecap:round;stroke-linejoin:round;stroke-miterlimit:10;" d="&#10;&#9;&#9;&#9;M86.894,111.894L86.894,111.894c-6.522,24.724-16.649,48.353-30.054,70.127l-15.974,25.948c-0.693,1.126-0.265,2.605,0.924,3.186&#10;&#9;&#9;&#9;l26.312,12.86c24.746,12.094,53.681,12.126,78.453,0.086l26.64-12.948c1.191-0.579,1.623-2.06,0.928-3.188l-15.992-25.977&#10;&#9;&#9;&#9;c-13.391-21.752-23.511-45.355-30.034-70.051l-0.013-0.048c-2.478-9.381-10.982-15.902-20.685-15.861h0&#10;&#9;&#9;&#9;C97.762,96.068,89.353,102.575,86.894,111.894z"/>
		
			<line style="fill:none;stroke:#000000;stroke-width:15;stroke-linecap:round;stroke-linejoin:round;stroke-miterlimit:10;" x1="107.496" y1="42.365" x2="107.496" y2="94.785"/>
		
			<line style="fill:none;stroke:#000000;stroke-width:15;stroke-linecap:round;stroke-linejoin:round;stroke-miterlimit:10;" x1="299.53" y1="195.817" x2="211.42" y2="107.707"/>
		<path style="fill:none;stroke:#000000;stroke-width:15;stroke-linecap:round;stroke-linejoin:round;stroke-miterlimit:10;" d="&#10;&#9;&#9;&#9;M186.67,82.957l-52.11-52.11c-3.1-3.09-7.15-4.64-11.21-4.64c-4.06,0-8.11,1.55-11.21,4.64c-6.19,6.19-6.19,16.23,0,22.42&#10;&#9;&#9;&#9;l142.74,142.75"/>
		<path style="fill:none;stroke:#000000;stroke-width:15;stroke-linecap:round;stroke-linejoin:round;stroke-miterlimit:10;" d="&#10;&#9;&#9;&#9;M60.753,179.334c24.164,14.605,68.945,14.605,93.109,0"/>
		<path style="fill:none;stroke:#000000;stroke-width:15;stroke-linecap:round;stroke-linejoin:round;stroke-miterlimit:10;" d="&#10;&#9;&#9;&#9;M78.875,141.787c14.758,8.919,42.107,8.919,56.865,0"/>
		
			<line style="fill:none;stroke:#000000;stroke-width:15;stroke-linecap:round;stroke-linejoin:round;stroke-miterlimit:10;" x1="107.955" y1="233.102" x2="107.955" y2="99.444"/>
		<path style="fill:none;stroke:#000000;stroke-width:15;stroke-linecap:round;stroke-linejoin:round;stroke-miterlimit:10;" d="&#10;&#9;&#9;&#9;M397.25,196.847h15.12c12.85,0,24.27,8.19,28.4,20.36l20.9,61.57"/>
		<path style="fill:none;stroke:#000000;stroke-width:15;stroke-linecap:round;stroke-linejoin:round;stroke-miterlimit:10;" d="&#10;&#9;&#9;&#9;M191.95,276.837l23.32-73.03c1.33-4.14,5.18-6.96,9.53-6.96h137.45"/>
		
			<line style="fill:none;stroke:#000000;stroke-width:15;stroke-linecap:round;stroke-linejoin:round;stroke-miterlimit:10;" x1="299.335" y1="245.828" x2="299.335" y2="230.017"/>
		
			<line style="fill:none;stroke:#000000;stroke-width:15;stroke-linecap:round;stroke-linejoin:round;stroke-miterlimit:10;" x1="350.335" y1="245.828" x2="350.335" y2="230.017"/>
		
			<line style="fill:none;stroke:#000000;stroke-width:15;stroke-linecap:round;stroke-linejoin:round;stroke-miterlimit:10;" x1="401.335" y1="245.828" x2="401.335" y2="230.017"/>
		
			<line style="fill:none;stroke:#000000;stroke-width:15;stroke-linecap:round;stroke-linejoin:round;stroke-miterlimit:10;" x1="248.335" y1="245.828" x2="248.335" y2="230.017"/>
		<path style="fill:none;stroke:#000000;stroke-width:15;stroke-linecap:round;stroke-linejoin:round;stroke-miterlimit:10;" d="&#10;&#9;&#9;&#9;M9.77,350.417c-0.75-4.34-1.22-8.74-1.43-13.18l-0.69-14.9c-0.08-1.71,1.28-3.14,2.99-3.14h269.85h10.85&#10;&#9;&#9;&#9;c4.07,0,7.97-1.61,10.85-4.49l29.99-29.99c2.88-2.88,6.78-4.5,10.85-4.5h156.76c2.47,0,4.35,2.22,3.95,4.65l-1.86,11.27&#10;&#9;&#9;&#9;c-1.12,6.82-2.62,13.53-4.49,20.12"/>
		<path style="fill:none;stroke:#000000;stroke-width:15;stroke-linecap:round;stroke-linejoin:round;stroke-miterlimit:10;" d="&#10;&#9;&#9;&#9;M438.27,406.567c19.36-15.92,35.08-35.6,46.32-57.68"/>
		<path style="fill:none;stroke:#000000;stroke-width:15;stroke-linecap:round;stroke-linejoin:round;stroke-miterlimit:10;" d="&#10;&#9;&#9;&#9;M45.61,414.677c-10.12-8.88-18.41-19.45-24.58-31.11"/>
		<path style="fill:none;stroke:#000000;stroke-width:15;stroke-linecap:round;stroke-linejoin:round;stroke-miterlimit:10;" d="&#10;&#9;&#9;&#9;M7.5,435.793c31.064,0,31.064-28,62.129-28s31.064,28,62.129,28c31.063,0,31.063-28,62.126-28c31.062,0,31.062,28,62.124,28&#10;&#9;&#9;&#9;c31.061,0,31.061-28,62.121-28c31.062,0,31.062,28,62.124,28c31.062,0,31.062-28,62.125-28c31.061,0,31.061,28,62.122,28"/>
		<path style="fill:none;stroke:#000000;stroke-width:15;stroke-linecap:round;stroke-linejoin:round;stroke-miterlimit:10;" d="&#10;&#9;&#9;&#9;M504.5,485.793c-31.061,0-31.061-28-62.122-28c-31.062,0-31.062,28-62.125,28c-31.062,0-31.062-28-62.124-28&#10;&#9;&#9;&#9;c-31.061,0-31.061,28-62.121,28c-31.062,0-31.062-28-62.124-28c-31.063,0-31.063,28-62.126,28c-31.065,0-31.065-28-62.129-28&#10;&#9;&#9;&#9;s-31.064,28-62.129,28"/>
		
			<circle style="fill:none;stroke:#000000;stroke-width:15;stroke-linecap:round;stroke-linejoin:round;stroke-miterlimit:10;" cx="318.453" cy="364.824" r="14.965"/>
		
			<circle style="fill:none;stroke:#000000;stroke-width:15;stroke-linecap:round;stroke-linejoin:round;stroke-miterlimit:10;" cx="244.539" cy="364.824" r="14.965"/>
		
			<circle style="fill:none;stroke:#000000;stroke-width:15;stroke-linecap:round;stroke-linejoin:round;stroke-miterlimit:10;" cx="170.625" cy="364.824" r="14.965"/>
		
			<circle style="fill:none;stroke:#000000;stroke-width:15;stroke-linecap:round;stroke-linejoin:round;stroke-miterlimit:10;" cx="96.712" cy="364.824" r="14.965"/>
		<path style="fill:none;stroke:#000000;stroke-width:15;stroke-linecap:round;stroke-linejoin:round;stroke-miterlimit:10;" d="&#10;&#9;&#9;&#9;M21.11,317.999v-27.778c0-5.523,4.477-10,10-10h239.376c5.523,0,10,4.477,10,10v28.981"/>
		
			<line style="fill:none;stroke:#000000;stroke-width:15;stroke-linecap:round;stroke-linejoin:round;stroke-miterlimit:10;" x1="85.954" y1="282.32" x2="85.954" y2="317.769"/>
		
			<line style="fill:none;stroke:#000000;stroke-width:15;stroke-linecap:round;stroke-linejoin:round;stroke-miterlimit:10;" x1="150.798" y1="282.32" x2="150.798" y2="317.769"/>
		
			<line style="fill:none;stroke:#000000;stroke-width:15;stroke-linecap:round;stroke-linejoin:round;stroke-miterlimit:10;" x1="215.642" y1="282.32" x2="215.642" y2="317.769"/>
		
			<line style="fill:none;stroke:#000000;stroke-width:15;stroke-linecap:round;stroke-linejoin:round;stroke-miterlimit:10;" x1="397.253" y1="349.917" x2="397.253" y2="386.193"/>
		<path style="fill:none;stroke:#000000;stroke-width:15;stroke-linecap:round;stroke-linejoin:round;stroke-miterlimit:10;" d="&#10;&#9;&#9;&#9;M376.265,372.907c7.308,19.341,34.668,19.341,41.976,0"/>
		
			<line style="fill:none;stroke:#000000;stroke-width:15;stroke-linecap:round;stroke-linejoin:round;stroke-miterlimit:10;" x1="385.259" y1="346.154" x2="409.248" y2="346.154"/>
	</g>
</g>















</svg>
