<svg id="Layer_1" enable-background="new 0 0 256 256" height="512" viewBox="0 0 256 256" width="512" xmlns="http://www.w3.org/2000/svg"><g><g><g><g><path d="m128 248c6.173 0 11.177-5.004 11.177-11.177h-22.354c0 6.173 5.004 11.177 11.177 11.177z" fill="#808285"/></g><g><path d="m134.177 236.823c0 5.312-3.709 9.75-8.677 10.886.805.184 1.639.291 2.5.291 6.173 0 11.177-5.004 11.177-11.177z" fill="#58595b"/></g><g><path d="m128 33.274c-39.828 0-72.116 32.287-72.116 72.115 0 22.526 10.329 44.316 26.508 59.44 10.173 9.51 17.649 21.278 22.278 34.137h46.66c4.628-12.859 12.104-24.628 22.278-34.137 16.18-15.124 26.508-36.913 26.508-59.44 0-39.828-32.288-72.115-72.116-72.115z" fill="#ffa91a"/></g><g><path d="m173.747 49.643c10.227 12.448 16.369 28.379 16.369 45.746 0 22.526-10.329 44.316-26.508 59.44-9.346 8.737-16.416 19.38-21.093 31.024-.757 1.885-2.591 3.113-4.622 3.113h-37.521c1.63 3.243 3.068 6.581 4.299 10h46.66c4.628-12.859 12.104-24.628 22.278-34.137 16.18-15.124 26.508-36.913 26.508-59.44-.001-22.461-10.272-42.52-26.37-55.746z" fill="#f79219"/></g><g><g><path d="m176.431 51.958c11.61 12.8 18.685 29.789 18.685 48.431 0 22.526-10.329 44.316-26.508 59.44-9.346 8.737-16.416 19.38-21.093 31.024-.757 1.885-2.591 3.113-4.622 3.113h-40.193c.705 1.647 1.364 3.313 1.971 5h46.66c4.628-12.859 12.104-24.628 22.278-34.137 16.18-15.124 26.508-36.913 26.508-59.44-.001-21.186-9.139-40.237-23.686-53.431z" fill="#ef7816"/></g></g><g><g><path d="m162.584 135.34c-1.992-1.036-4.236-.735-5.843.484-1.405 1.065-3.225 1.413-4.882.81l-11.627-4.232 11.591-4.219c1.66-.604 3.484-.245 4.881.836 1.515 1.173 3.615 1.512 5.536.673 2.445-1.068 3.772-3.836 3.074-6.411-.424-1.564-1.468-2.756-2.774-3.428.599-1.446.59-3.149-.242-4.695-1.138-2.116-3.602-3.246-5.948-2.725-2.191.487-3.718 2.16-4.165 4.126-.391 1.719-1.562 3.156-3.219 3.759l-20.966 7.632-20.967-7.631c-1.657-.603-2.827-2.039-3.219-3.759-.448-1.966-1.974-3.639-4.165-4.126-2.345-.521-4.81.609-5.948 2.725-.832 1.546-.841 3.25-.242 4.695-1.306.672-2.35 1.864-2.774 3.428-.698 2.575.629 5.344 3.074 6.411 1.921.839 4.021.5 5.536-.673 1.397-1.082 3.221-1.441 4.881-.836l11.591 4.219-11.627 4.232c-1.657.603-3.477.255-4.882-.81-1.607-1.218-3.852-1.519-5.843-.484-2.132 1.108-3.293 3.558-2.805 5.91.357 1.719 1.445 3.03 2.833 3.752-.568 1.354-.602 2.938.079 4.409 1.12 2.421 3.916 3.689 6.475 2.936 2.011-.592 3.402-2.202 3.808-4.074.375-1.727 1.541-3.174 3.201-3.778l20.994-7.641 20.992 7.641c1.66.604 2.827 2.051 3.201 3.778.407 1.872 1.797 3.482 3.808 4.074 2.559.754 5.355-.514 6.475-2.936.681-1.471.647-3.055.079-4.409 1.388-.722 2.476-2.033 2.833-3.752.49-2.353-.672-4.802-2.804-5.911z" fill="#fff"/></g><g><path d="m145.874 67.082c-5.079-3.482-10.813-5.489-17.874-5.489s-12.795 2.007-17.874 5.489c-10.171 6.975-9.344 18.842-8.117 23.008 1.227 4.165 7.511 7.017 7.511 7.017s-4.271 1.674-2.838 5.348c1.431 3.676 6.87 3.302 6.87 3.302s-3.68 9.038.647 10.58c4.326 1.541 5.579-3.481 5.579-3.481s-.854 4.631 3.192 5.081c2.645.295 4.551-3.773 5.029-5.572.478 1.799 2.384 5.867 5.029 5.572 4.046-.45 3.192-5.081 3.192-5.081s1.254 5.022 5.579 3.481c4.327-1.542.647-10.58.647-10.58s5.439.373 6.869-3.302c1.433-3.674-2.838-5.348-2.838-5.348s6.284-2.852 7.511-7.017c1.229-4.167 2.056-16.033-8.114-23.008zm-22.693 22.201c-3.524.227-9.252.328-10.879-1.226-2.399-2.293.759-7.693 2.227-8.117 2.219-.641 6.95 4.05 9.603 6.939.817.89.254 2.327-.951 2.404zm7.657 15.07h-5.676c-1.258 0-2.064-1.338-1.477-2.45l2.838-5.373c.627-1.186 2.326-1.186 2.953 0l2.838 5.373c.588 1.113-.218 2.45-1.476 2.45zm12.86-16.296c-1.627 1.554-7.355 1.453-10.879 1.226-1.205-.077-1.768-1.514-.951-2.404 2.653-2.889 7.383-7.58 9.603-6.939 1.468.424 4.626 5.824 2.227 8.117z" fill="#fff"/></g></g><g><g><path d="m141.313 236.823h-26.626c-5.523 0-10-4.477-10-10v-27.857h46.626v27.857c0 5.523-4.477 10-10 10z" fill="#e6e7e8"/></g></g><g><path d="m146.313 198.966v22.857c0 5.523-4.477 10-10 10h-26.626c-1.466 0-2.855-.323-4.11-.89 1.569 3.471 5.053 5.89 9.11 5.89h26.626c5.523 0 10-4.477 10-10v-27.857z" fill="#d1d3d4"/></g><g><g><path d="m104.687 208.729h46.625v4h-46.625z" fill="#939598"/></g></g><g><g><path d="m104.687 222.142h46.625v4h-46.625z" fill="#939598"/></g></g><g><path d="m62.998 95.281c-.122 0-.244-.011-.368-.034-1.086-.202-1.803-1.246-1.601-2.332 3.105-16.715 12.343-31.602 26.01-41.919.881-.667 2.136-.491 2.801.391.666.882.49 2.136-.391 2.801-12.868 9.714-21.565 23.727-24.488 39.457-.178.963-1.018 1.636-1.963 1.636zm31.908-45.112c-.69 0-1.361-.357-1.732-.997-.554-.956-.229-2.179.726-2.734l.365-.21c.959-.549 2.181-.218 2.73.74.55.958.219 2.18-.74 2.73l-.348.201c-.315.183-.66.27-1.001.27z" fill="#ffc91d"/></g></g><g><g><g><path d="m228.354 110.354h-18.536c-1.104 0-2-.896-2-2s.896-2 2-2h18.536c1.104 0 2 .896 2 2s-.896 2-2 2z" fill="#ffc91d"/></g><g><path d="m46.183 110.354h-18.537c-1.104 0-2-.896-2-2s.896-2 2-2h18.537c1.104 0 2 .896 2 2s-.896 2-2 2z" fill="#ffc91d"/></g></g><g><g><path d="m185.854 52.5c-.512 0-1.023-.195-1.414-.586-.781-.781-.781-2.047 0-2.828l13.107-13.107c.781-.781 2.047-.781 2.828 0s.781 2.047 0 2.828l-13.107 13.107c-.391.391-.903.586-1.414.586z" fill="#ffc91d"/></g><g><path d="m57.039 181.315c-.512 0-1.024-.195-1.414-.586-.781-.781-.781-2.047 0-2.828l13.107-13.107c.78-.781 2.048-.781 2.828 0 .781.781.781 2.047 0 2.828l-13.107 13.107c-.39.391-.902.586-1.414.586z" fill="#ffc91d"/></g></g><g><g><path d="m128 28.537c-1.104 0-2-.896-2-2v-18.537c0-1.104.896-2 2-2s2 .896 2 2v18.537c0 1.104-.896 2-2 2z" fill="#ffc91d"/></g></g><g><g><path d="m198.961 181.315c-.512 0-1.023-.195-1.414-.586l-13.107-13.107c-.781-.781-.781-2.047 0-2.828s2.047-.781 2.828 0l13.107 13.107c.781.781.781 2.047 0 2.828-.391.391-.902.586-1.414.586z" fill="#ffc91d"/></g><g><path d="m70.146 52.5c-.512 0-1.024-.195-1.414-.586l-13.107-13.107c-.781-.781-.781-2.047 0-2.828.78-.781 2.048-.781 2.828 0l13.107 13.107c.781.781.781 2.047 0 2.828-.39.391-.902.586-1.414.586z" fill="#ffc91d"/></g></g></g></g></g></svg>