<?xml version="1.0" encoding="UTF-8" standalone="no"?>
<!-- Created with Inkscape (http://www.inkscape.org/) -->

<svg
   version="1.1"
   id="svg3687"
   xml:space="preserve"
   width="682.66669"
   height="682.66669"
   viewBox="0 0 682.66669 682.66669"
   xmlns="http://www.w3.org/2000/svg"
   xmlns:svg="http://www.w3.org/2000/svg"><defs
     id="defs3691"><clipPath
       clipPathUnits="userSpaceOnUse"
       id="clipPath3701"><path
         d="M 0,512 H 512 V 0 H 0 Z"
         id="path3699" /></clipPath></defs><g
     id="g3693"
     transform="matrix(1.3333333,0,0,-1.3333333,0,682.66667)"><g
       id="g3695"><g
         id="g3697"
         clip-path="url(#clipPath3701)"><g
           id="g3703"
           transform="translate(68.2212,351.5391)"><path
             d="m 0,0 c 14.01,-30.29 21.01,-62.919 21.01,-95.539 0,-32.62 -7,-65.25 -21.01,-95.54"
             style="fill:none;stroke:#000000;stroke-width:15;stroke-linecap:round;stroke-linejoin:round;stroke-miterlimit:10;stroke-dasharray:none;stroke-opacity:1"
             id="path3705" /></g><g
           id="g3707"
           transform="translate(267.1396,466.3882)"><path
             d="M 0,0 C 38.46,-54.54 99.02,-89.499 165.489,-95.529"
             style="fill:none;stroke:#000000;stroke-width:15;stroke-linecap:round;stroke-linejoin:round;stroke-miterlimit:10;stroke-dasharray:none;stroke-opacity:1"
             id="path3709" /></g><g
           id="g3711"
           transform="translate(267.1396,45.6113)"><path
             d="m 0,0 c 19.23,27.27 43.99,49.64 72.239,65.96 28.25,16.32 60.01,26.56 93.25,29.569"
             style="fill:none;stroke:#000000;stroke-width:15;stroke-linecap:round;stroke-linejoin:round;stroke-miterlimit:10;stroke-dasharray:none;stroke-opacity:1"
             id="path3713" /></g><g
           id="g3715"
           transform="translate(157.7798,119.4199)"><path
             d="M 0,0 C 5.05,-2.43 10,-5.05 14.84,-7.85 43.09,-24.17 67.85,-46.54 87.08,-73.81"
             style="fill:none;stroke:#000000;stroke-width:15;stroke-linecap:round;stroke-linejoin:round;stroke-miterlimit:10;stroke-dasharray:none;stroke-opacity:1"
             id="path3717" /></g><g
           id="g3719"
           transform="translate(79.3701,141.1401)"><path
             d="M 0,0 C 17.46,-1.58 34.5,-5.16 50.85,-10.55"
             style="fill:none;stroke:#000000;stroke-width:15;stroke-linecap:round;stroke-linejoin:round;stroke-miterlimit:10;stroke-dasharray:none;stroke-opacity:1"
             id="path3721" /></g><g
           id="g3723"
           transform="translate(443.7783,160.4604)"><path
             d="m 0,0 c -14.01,30.29 -21.01,62.92 -21.01,95.54 0,32.619 7,65.249 21.01,95.539"
             style="fill:none;stroke:#000000;stroke-width:15;stroke-linecap:round;stroke-linejoin:round;stroke-miterlimit:10;stroke-dasharray:none;stroke-opacity:1"
             id="path3725" /></g><g
           id="g3727"
           transform="translate(79.3716,370.8589)"><path
             d="m 0,0 c 33.24,3.01 65,13.25 93.249,29.57 28.25,16.32 53.01,38.69 72.239,65.959"
             style="fill:none;stroke:#000000;stroke-width:15;stroke-linecap:round;stroke-linejoin:round;stroke-miterlimit:10;stroke-dasharray:none;stroke-opacity:1"
             id="path3729" /></g><g
           id="g3731"
           transform="translate(276.6875,483.8101)"><path
             d="m 0,0 c 0,11.426 -9.262,20.688 -20.687,20.688 -11.426,0 -20.688,-9.262 -20.688,-20.688 0,-11.425 9.262,-20.687 20.688,-20.687 C -9.262,-20.687 0,-11.425 0,0"
             style="fill:#e4646e;fill-opacity:1;fill-rule:nonzero;stroke:none"
             id="path3733" /></g><g
           id="g3735"
           transform="translate(265.0918,465.2202)"><path
             d="m 0,0 c -2.74,-1.34 -5.83,-2.1 -9.09,-2.1 -11.43,0 -20.69,9.27 -20.69,20.69 0,11.43 9.26,20.69 20.69,20.69 3.26,0 6.35,-0.76 9.09,-2.1 C -6.87,33.82 -11.6,26.76 -11.6,18.59 -11.6,10.43 -6.87,3.37 0,0"
             style="fill:#da4655;fill-opacity:1;fill-rule:nonzero;stroke:none"
             id="path3737" /></g><g
           id="g3739"
           transform="translate(276.6875,483.8101)"><path
             d="m 0,0 c 0,11.426 -9.262,20.688 -20.687,20.688 -11.426,0 -20.688,-9.262 -20.688,-20.688 0,-11.425 9.262,-20.687 20.688,-20.687 C -9.262,-20.687 0,-11.425 0,0 Z"
             style="fill:none;stroke:#000000;stroke-width:15;stroke-linecap:round;stroke-linejoin:bevel;stroke-miterlimit:10;stroke-dasharray:none;stroke-opacity:1"
             id="path3741" /></g><g
           id="g3743"
           transform="translate(473.9775,369.9053)"><path
             d="m 0,0 c 0,11.425 -9.263,20.687 -20.688,20.687 -11.425,0 -20.688,-9.262 -20.688,-20.687 0,-11.426 9.263,-20.688 20.688,-20.688 C -9.263,-20.688 0,-11.426 0,0"
             style="fill:#e4646e;fill-opacity:1;fill-rule:nonzero;stroke:none"
             id="path3745" /></g><g
           id="g3747"
           transform="translate(462.3818,351.3149)"><path
             d="m 0,0 c -2.74,-1.34 -5.83,-2.1 -9.09,-2.1 -11.431,0 -20.69,9.27 -20.69,20.69 0,11.43 9.259,20.69 20.69,20.69 3.26,0 6.35,-0.76 9.09,-2.1 C -6.87,33.82 -11.601,26.76 -11.601,18.59 -11.601,10.43 -6.87,3.37 0,0"
             style="fill:#da4655;fill-opacity:1;fill-rule:nonzero;stroke:none"
             id="path3749" /></g><g
           id="g3751"
           transform="translate(473.9775,369.9053)"><path
             d="m 0,0 c 0,11.425 -9.263,20.687 -20.688,20.687 -11.425,0 -20.688,-9.262 -20.688,-20.687 0,-11.426 9.263,-20.688 20.688,-20.688 C -9.263,-20.688 0,-11.426 0,0 Z"
             style="fill:none;stroke:#000000;stroke-width:15;stroke-linecap:round;stroke-linejoin:bevel;stroke-miterlimit:10;stroke-dasharray:none;stroke-opacity:1"
             id="path3753" /></g><g
           id="g3755"
           transform="translate(473.9775,142.0947)"><path
             d="m 0,0 c 0,11.426 -9.263,20.688 -20.688,20.688 -11.425,0 -20.688,-9.262 -20.688,-20.688 0,-11.425 9.263,-20.688 20.688,-20.688 C -9.263,-20.688 0,-11.425 0,0"
             style="fill:#e4646e;fill-opacity:1;fill-rule:nonzero;stroke:none"
             id="path3757" /></g><g
           id="g3759"
           transform="translate(462.3818,123.5049)"><path
             d="m 0,0 c -2.74,-1.34 -5.83,-2.1 -9.09,-2.1 -11.431,0 -20.69,9.27 -20.69,20.69 0,11.43 9.259,20.69 20.69,20.69 3.26,0 6.35,-0.76 9.09,-2.1 C -6.87,33.82 -11.601,26.76 -11.601,18.59 -11.601,10.43 -6.87,3.37 0,0"
             style="fill:#da4655;fill-opacity:1;fill-rule:nonzero;stroke:none"
             id="path3761" /></g><g
           id="g3763"
           transform="translate(473.9775,142.0947)"><path
             d="m 0,0 c 0,11.426 -9.263,20.688 -20.688,20.688 -11.425,0 -20.688,-9.262 -20.688,-20.688 0,-11.425 9.263,-20.688 20.688,-20.688 C -9.263,-20.688 0,-11.425 0,0 Z"
             style="fill:none;stroke:#000000;stroke-width:15;stroke-linecap:round;stroke-linejoin:bevel;stroke-miterlimit:10;stroke-dasharray:none;stroke-opacity:1"
             id="path3765" /></g><g
           id="g3767"
           transform="translate(79.3984,369.9048)"><path
             d="m 0,0 c 0,11.426 -9.262,20.688 -20.688,20.688 -11.425,0 -20.687,-9.262 -20.687,-20.688 0,-11.425 9.262,-20.687 20.687,-20.687 C -9.262,-20.687 0,-11.425 0,0"
             style="fill:#e4646e;fill-opacity:1;fill-rule:nonzero;stroke:none"
             id="path3769" /></g><g
           id="g3771"
           transform="translate(67.8027,351.3149)"><path
             d="m 0,0 c -2.74,-1.34 -5.83,-2.1 -9.09,-2.1 -11.43,0 -20.69,9.27 -20.69,20.69 0,11.43 9.26,20.69 20.69,20.69 3.26,0 6.35,-0.76 9.09,-2.1 C -6.87,33.82 -11.6,26.76 -11.6,18.59 -11.6,10.43 -6.87,3.37 0,0"
             style="fill:#da4655;fill-opacity:1;fill-rule:nonzero;stroke:none"
             id="path3773" /></g><g
           id="g3775"
           transform="translate(79.3984,369.9048)"><path
             d="m 0,0 c 0,11.426 -9.262,20.688 -20.688,20.688 -11.425,0 -20.687,-9.262 -20.687,-20.688 0,-11.425 9.262,-20.687 20.687,-20.687 C -9.262,-20.687 0,-11.425 0,0 Z"
             style="fill:none;stroke:#000000;stroke-width:15;stroke-linecap:round;stroke-linejoin:bevel;stroke-miterlimit:10;stroke-dasharray:none;stroke-opacity:1"
             id="path3777" /></g><g
           id="g3779"
           transform="translate(79.3984,142.0947)"><path
             d="m 0,0 c 0,11.426 -9.262,20.688 -20.688,20.688 -11.425,0 -20.688,-9.262 -20.688,-20.688 0,-11.425 9.263,-20.688 20.688,-20.688 C -9.262,-20.688 0,-11.425 0,0"
             style="fill:#e4646e;fill-opacity:1;fill-rule:nonzero;stroke:none"
             id="path3781" /></g><g
           id="g3783"
           transform="translate(67.8022,123.5049)"><path
             d="m 0,0 c -2.74,-1.34 -5.83,-2.1 -9.09,-2.1 -11.43,0 -20.69,9.27 -20.69,20.69 0,11.43 9.26,20.69 20.69,20.69 3.26,0 6.35,-0.76 9.09,-2.1 C -6.87,33.82 -11.6,26.76 -11.6,18.59 -11.6,10.43 -6.87,3.37 0,0"
             style="fill:#da4655;fill-opacity:1;fill-rule:nonzero;stroke:none"
             id="path3785" /></g><g
           id="g3787"
           transform="translate(79.3984,142.0947)"><path
             d="m 0,0 c 0,11.426 -9.262,20.688 -20.688,20.688 -11.425,0 -20.688,-9.262 -20.688,-20.688 0,-11.425 9.263,-20.688 20.688,-20.688 C -9.262,-20.688 0,-11.425 0,0 Z"
             style="fill:none;stroke:#000000;stroke-width:15;stroke-linecap:round;stroke-linejoin:bevel;stroke-miterlimit:10;stroke-dasharray:none;stroke-opacity:1"
             id="path3789" /></g><g
           id="g3791"
           transform="translate(276.6875,28.1899)"><path
             d="m 0,0 c 0,11.425 -9.262,20.687 -20.687,20.687 -11.426,0 -20.688,-9.262 -20.688,-20.687 0,-11.426 9.262,-20.688 20.688,-20.688 C -9.262,-20.688 0,-11.426 0,0"
             style="fill:#e4646e;fill-opacity:1;fill-rule:nonzero;stroke:none"
             id="path3793" /></g><g
           id="g3795"
           transform="translate(265.0918,9.5996)"><path
             d="m 0,0 c -2.74,-1.34 -5.83,-2.1 -9.09,-2.1 -11.43,0 -20.69,9.27 -20.69,20.69 0,11.43 9.26,20.69 20.69,20.69 3.26,0 6.35,-0.76 9.09,-2.1 C -6.87,33.82 -11.6,26.76 -11.6,18.59 -11.6,10.43 -6.87,3.37 0,0"
             style="fill:#da4655;fill-opacity:1;fill-rule:nonzero;stroke:none"
             id="path3797" /></g><g
           id="g3799"
           transform="translate(276.6875,28.1899)"><path
             d="m 0,0 c 0,11.425 -9.262,20.687 -20.687,20.687 -11.426,0 -20.688,-9.262 -20.688,-20.687 0,-11.426 9.262,-20.688 20.688,-20.688 C -9.262,-20.688 0,-11.426 0,0 Z"
             style="fill:none;stroke:#000000;stroke-width:15;stroke-linecap:round;stroke-linejoin:bevel;stroke-miterlimit:10;stroke-dasharray:none;stroke-opacity:1"
             id="path3801" /></g><g
           id="g3803"
           transform="translate(113.9111,135.311)"><path
             d="M 0,0 V 241.378"
             style="fill:none;stroke:#000000;stroke-width:15;stroke-linecap:round;stroke-linejoin:round;stroke-miterlimit:10;stroke-dasharray:none;stroke-opacity:1"
             id="path3805" /></g><g
           id="g3807"
           transform="translate(256,48.8813)"><path
             d="M 0,0 V 414.237"
             style="fill:none;stroke:#000000;stroke-width:15;stroke-linecap:round;stroke-linejoin:round;stroke-miterlimit:10;stroke-dasharray:none;stroke-opacity:1"
             id="path3809" /></g><g
           id="g3811"
           transform="translate(184.9507,103.9209)"><path
             d="M 0,0 V 304.158"
             style="fill:none;stroke:#000000;stroke-width:15;stroke-linecap:round;stroke-linejoin:round;stroke-miterlimit:10;stroke-dasharray:none;stroke-opacity:1"
             id="path3813" /></g><g
           id="g3815"
           transform="translate(398.0889,135.311)"><path
             d="M 0,0 V 241.378"
             style="fill:none;stroke:#000000;stroke-width:15;stroke-linecap:round;stroke-linejoin:round;stroke-miterlimit:10;stroke-dasharray:none;stroke-opacity:1"
             id="path3817" /></g><g
           id="g3819"
           transform="translate(327.0498,103.9209)"><path
             d="M 0,0 V 304.158"
             style="fill:none;stroke:#000000;stroke-width:15;stroke-linecap:round;stroke-linejoin:round;stroke-miterlimit:10;stroke-dasharray:none;stroke-opacity:1"
             id="path3821" /></g><g
           id="g3823"
           transform="translate(344.8389,397.3887)"><path
             d="M 0,0 H -177.678"
             style="fill:none;stroke:#000000;stroke-width:15;stroke-linecap:round;stroke-linejoin:round;stroke-miterlimit:10;stroke-dasharray:none;stroke-opacity:1"
             id="path3825" /></g><g
           id="g3827"
           transform="translate(422.7783,255.2998)"><path
             d="M 0,0 H -333.557"
             style="fill:none;stroke:#000000;stroke-width:15;stroke-linecap:round;stroke-linejoin:round;stroke-miterlimit:10;stroke-dasharray:none;stroke-opacity:1"
             id="path3829" /></g><g
           id="g3831"
           transform="translate(347.2695,326.3501)"><path
             d="M 0,0 H -269.18"
             style="fill:none;stroke:#000000;stroke-width:15;stroke-linecap:round;stroke-linejoin:round;stroke-miterlimit:10;stroke-dasharray:none;stroke-opacity:1"
             id="path3833" /></g><g
           id="g3835"
           transform="translate(433.9102,326.3501)"><path
             d="M 0,0 H -56.72"
             style="fill:none;stroke:#000000;stroke-width:15;stroke-linecap:round;stroke-linejoin:round;stroke-miterlimit:10;stroke-dasharray:none;stroke-opacity:1"
             id="path3837" /></g><g
           id="g3839"
           transform="translate(342.249,113.2012)"><path
             d="M 0,0 H -172.499"
             style="fill:none;stroke:#000000;stroke-width:15;stroke-linecap:round;stroke-linejoin:round;stroke-miterlimit:10;stroke-dasharray:none;stroke-opacity:1"
             id="path3841" /></g><g
           id="g3843"
           transform="translate(434.3584,184.2505)"><path
             d="M 0,0 H -356.717"
             style="fill:none;stroke:#000000;stroke-width:15;stroke-linecap:round;stroke-linejoin:round;stroke-miterlimit:10;stroke-dasharray:none;stroke-opacity:1"
             id="path3845" /></g></g></g></g></svg>
