<svg id="svg3428" height="512" viewBox="0 0 16.933333 16.933334" width="512" xmlns="http://www.w3.org/2000/svg" xmlns:svg="http://www.w3.org/2000/svg"><g id="layer1" transform="translate(0 -280.067)"><path id="path13277" d="m8.2020829 285.09372h1.0583341c.2931589 0 .5291659-.236.5291659-.52916v-3.70417h2.1166671v14.81667c0 .29316-.236009.52916-.529167.52916h-10.054167c-.293158 0-.51522298-.23634-.52916598-.52916v-14.81667h2.11666698v3.70417c0 .29316.2360081.52916.5291658.52916h1.0583342c.2931588 0 .5291658-.23601.5291658-.52916 0-.29316.2360092-.52917.5291672-.52917h1.5874998c.2931581 0 .5291672.23601.5291672.52917 0 .29315.2360078.52916.5291659.52916z" fill="#33b9ef"/><path id="path12455" d="m3.4395839 289.85622h5.8208339v1.05834h-5.8208339z" fill="#c8d4d9"/><path id="path12457" d="m8.7312519 290.91456-.5291669 5.29166h-3.704167l-.5291672-5.29166z" fill="#dbe9ee"/><path id="path13225" d="m12.170834 284.29997v.99374c-1.085305.42205-1.852083 1.47236-1.852083 2.71043v7.40833c0 .43974.354015.79375.79375.79375h.264583c.439735 0 .79375-.35401.79375-.79375 0 .43974.354015.79375.79375.79375h.529167c.439737 0 .79375-.35401.79375-.79375 0 .43974.354015.79375.79375.79375h.264583c.439735 0 .79375-.35401.79375-.79375v-7.40833c0-1.23807-.766778-2.28838-1.852083-2.71043v-.99374z" fill="#dbe9ee"/><path id="path13227" d="m12.435418 282.97706h1.5875c.293158 0 .529166.236.529166.52916v.79375h-2.645833v-.79375c0-.29316.236008-.52916.529167-.52916z" fill="#ff6b6b"/><path id="path13229" d="m10.318751 288.00414h5.820833l-.000001 4.7625h-5.820832z" fill="#ff6b6b"/><path id="rect7292" d="m.79375002 280.86039h2.11666698v1.05833h-2.11666698z" fill="#2fa9da"/><path id="rect7294" d="m9.7895829 280.86039h2.1166651v1.05833h-2.1166651z" fill="#2fa9da"/><path id="path13481-3" d="m.78083102 280.59632c-.148005.0136-.25128.12753-.251147.26355v1.05834c-.0008467.14632.117227.26555.26355.26613h1.85363498v2.38073c0 .43516.357555.79272.7927149.79272h1.058849c.4351631 0 .7927181-.35756.7927181-.79272 0-.15116.1144619-.26561.265616-.26561h1.5859488c.151157 0 .2656181.11445.2656181.26561 0 .43516.358071.79272.7932341.79272h1.0583339c.4351599 0 .7952991-.35756.7952991-.79272v-2.38073h1.851566v-.002c.145706-.00053.263514-.11888.26355-.26458v-1.05834c-.000529-.14531-.118233-.26297-.26355-.26355h-2.117699c-.1453171.00058-.2629691.11824-.2635512.26355v3.7052c0 .15116-.114459.26355-.2656149.26355h-1.0583339c-.1511591 0-.2635512-.11239-.2635512-.26355 0-.43516-.3601408-.7953-.795301-.7953h-1.5859488c-.435161 0-.7947821.36014-.7947821.7953 0 .15116-.1123929.26355-.263552.26355h-1.058849c-.151156 0-.2656179-.11239-.2656179-.26355v-3.70516c-.0005292-.14531-.1182369-.26297-.263549-.26355zm.27801998.52917h1.588018v.52916h-1.588018zm8.99635 0h1.585431v.52916h-1.585431zm-9.52551698 14.55053c-.000122.005-.000122.009 0 .0139.01997.41938.357356.78135.79271608.78135h2.1171838c.3531211 0 .3531211-.52968 0-.52968h-2.1171838c-.1509551 0-.2556322-.11071-.2635491-.27699v-12.68758h-.0005292c0-.14658-.11800398-.26459-.26458298-.26459s-.264583.11801-.264325.26588zm11.90624898-12.96251c-.435161 0-.795301.35755-.795301.79271v.79324c-.000529.14713.119008.26646.266135.26561h2.116151v.68265c-.02138.1253.04934.24811.168465.29249.986343.38357 1.683618 1.3351 1.683618 2.46393v4.49843h-5.291667v-4.23436h4.496882c.352867 0 .352867-.52969 0-.52969h-4.481896c.09986-1.01061.760867-1.8453 1.668631-2.19831.279025-.10362.200963-.51772-.09663-.51263-.03281.00053-.06523.007-.0956.0196-1.184267.46055-2.020549 1.60961-2.020549 2.95693v7.40833c0 .58174.476593 1.05833 1.058334 1.05833h.264582c.316996 0 .599295-.14449.79375-.36742.194457.22293.476757.36742.79375.36742h.529168c.316994 0 .599294-.14449.79375-.36742.194455.22293.476755.36742.793749.36742h.264584c.58174 0 1.058334-.47659 1.058334-1.05833v-1.5875c.0021-.14916-.119558-.27053-.268718-.2682-.145928.002-.262447.12227-.26045.2682v1.5875c0 .29773-.231435.52917-.529166.52917h-.264584c-.297729 0-.529166-.23144-.529166-.52917.0051-.3578-.534228-.3578-.529166 0 0 .29773-.231434.52917-.529167.52917h-.529168c-.297729 0-.529166-.23144-.529166-.52917.0051-.3578-.534228-.3578-.529166 0 0 .29773-.231437.52917-.529168.52917h-.264582c-.297731 0-.529168-.23144-.529168-.52917v-2.38073h5.516461c.161549.0246.306533-.10171.304374-.2651v-4.7625c0-1.28224-.758101-2.38356-1.852084-2.88407v-.555h.0011c.146118-.00053.264104-.1195.263548-.26562v-.79323c0-.43516-.357555-.79272-.792715-.79272zm0 .52709h1.588019c.15115 0 .263549.11447.263549.26562v.52968h-2.117184v-.52968c0-.15115.114459-.26562.265616-.26562zm-5.2968341 3.96669c-.06865.002-.13404.0309-.181901.0801l-.7947819.7953c-.04875.0495-.07591.11607-.07596.18552v1.32394h-2.6608191c-.149043.0136-.2518019.12753-.2516669.26356v1.05885c.0005292.14611.119499.2641.2656178.26354h4.999694l-.4764569 4.76354h-3.225641l-.39946-3.99511c-.0335-.35305-.5637321-.29998-.5265819.0527l.4237468 4.23334c.013549.13514.1272091.23809.2630321.23822h3.704167c.1358241-.00013.249492-.10308.2630331-.23822l.505396-5.05448h.2893888c.146118.00053.26503-.11743.265615-.26355v-1.05884c-.0005292-.14612-.119497-.26411-.265615-.26356h-2.6442829v-1.21491l.7146841-.71468c.174276-.16786.05065-.46244-.1912041-.45527zm4.2343681 1.58595c-.147148.001-.264866.12262-.262001.26975v.26355c-.008.3607.537176.3607.529166 0v-.26355c.0029-.14915-.117993-.27122-.267165-.26975zm0 1.19166c-.146329.001-.263708.12135-.262001.26768v1.45469c-.008.3607.537176.3607.529166 0v-1.45469c.0019-.14835-.118815-.26912-.267165-.26768zm-7.670334.13694h5.2932169v.52917h-5.2932169z" font-variant-ligatures="normal" font-variant-position="normal" font-variant-caps="normal" font-variant-numeric="normal" font-variant-alternates="normal" font-feature-settings="normal" text-indent="0" text-align="start" text-decoration-line="none" text-decoration-style="solid" text-decoration-color="#000000" text-transform="none" text-orientation="mixed" white-space="normal" shape-padding="0" isolation="auto" mix-blend-mode="normal" solid-color="#000000" solid-opacity="1" vector-effect="none"/></g></svg>